<svg height="48" width="48" xmlns="http://www.w3.org/2000/svg">
  <path d="m24 2c-12.144 0-22 9.856003-22 22 0 10.682666 7.6473711 19.544933 17.75 21.53125-.650907-.438639-1.130847-1.029627-1.21875-1.875-.124613-1.198393.668577-2.175172 1.625-2.8125.983772-.655552 2.287664-1.126594 3.8125-1.3125.585523-.071387 1.051073.03121 1.5625.0625v-6.46875c-.500308.090814-1.008054.15625-1.53125.15625-5.119529 0-9.28125-4.161721-9.28125-9.28125 0-5.119533 4.161721-9.28125 9.28125-9.28125 4.282353 0 7.873464 2.925615 8.9375 6.875l10.78125-1.0625c.192855-.01872.768681-.092373 1.3125.4375.54382.529873.5 1.026144.5 1.21875v6.21875c.295154-1.428908.46875-2.891441.46875-4.40625 0-12.143997-9.855999-22-22-22zm0 14.03125c-4.405177 0-7.96875 3.563573-7.96875 7.96875s3.563573 7.96875 7.96875 7.96875c.527628 0 1.035466-.082404 1.53125-.1875l-.03125-1.96875c-.480368.126143-.974623.21875-1.5.21875-3.333647 0-6.03125-2.697603-6.03125-6.03125s2.697603-6.03125 6.03125-6.03125c2.592759 0 4.795985 1.642337 5.65625 3.9375l1.9375-.1875c-.988427-3.28246-3.990594-5.6875-7.59375-5.6875zm19.875 6-16.625 1.625c-.123816.01202-.25.142469-.25.28125l.03125 16.65625v.5625l-.59375-.0625c-.706687-.10911-1.444184-.164555-2.28125-.0625-1.314566.16027-2.430571.578932-3.15625 1.0625s-1.014469.966574-.96875 1.40625c.04328.416228.454401.879844 1.3125 1.1875.858099.30766 2.095411.441066 3.40625.28125 1.310263-.159746 2.445896-.583446 3.21875-1.09375s1.10597-1.081973 1.0625-1.5v-.03125-15.71875-.4375l.4375-.0625 12-1.21875.5625-.0625v.5625 13.28125.5625l-.59375-.09375c-.7373-.11392-1.298434-.163345-2.125-.0625-1.309277.159737-2.476863.552146-3.25 1.0625s-1.07467 1.082186-1.03125 1.5c.04322.415973.454098.848567 1.3125 1.15625.858402.30768 2.065196.441052 3.375.28125 1.309278-.159737 2.476863-.583396 3.25-1.09375s1.10592-1.050936 1.0625-1.46875v-.03125-.03125-18.28125c0-.138781-.0342-.168097-.15625-.15625zm-3.34375 4.5-7.875.78125c-.472617 1.229572-1.206553 2.307184-2.125 3.21875v11.6875.125.03125h-.03125c.048613 1.20074-.679775 2.043675-1.625 2.6875l-.09375.0625c-.290699.191944-.601914.37235-.9375.53125 2.313851-.412659 4.49461-1.206332 6.5-2.28125-.436198-.394616-.744271-.90583-.8125-1.5625-.131765-1.267928.665334-2.210882 1.71875-2.90625 1.057578-.698116 2.378994-1.129981 3.875-1.3125.536848-.065498.950368.03663 1.40625.0625zm-9.34375.9375-.65625.0625v1.0625c.248011-.358764.46763-.727205.65625-1.125z" fill="#a0a0a0" transform="matrix(1.0909091 0 0 1.0994989 -2.181818 -2.198998)"/>
</svg>
