<svg height="48" viewBox="0 0 48 48" width="48" xmlns="http://www.w3.org/2000/svg">
  <path d="m4 0c-2.22 0-4 1.78-4 4v40c0 2.22 1.78 4 4 4h40c2.22 0 4-1.78 4-4v-40c0-2.22-1.78-4-4-4zm1 3a2 2 0 0 1 2 2 2 2 0 0 1 -2 2 2 2 0 0 1 -2-2 2 2 0 0 1 2-2zm38 0a2 2 0 0 1 2 2 2 2 0 0 1 -2 2 2 2 0 0 1 -2-2 2 2 0 0 1 2-2zm-19 3a18 18 0 0 1 18 18 18 18 0 0 1 -18 18 18 18 0 0 1 -18-18 18 18 0 0 1 18-18zm0 2.311c-.96.025-1.91.229-2.87.689 0 0-2.16 3-2.16 6.15 0 .91.18 1.77.42 2.55-.55-.18-1.09-.39-1.62-.69-2.73-1.57-4.05-4.67-4.05-4.67-2.17 1.88-3.958 3.78-4.165 6.6 0 0 1.515 3.37 4.245 4.95.79.45 1.62.73 2.42.91-.43.39-.88.75-1.41 1.06-2.73 1.58-6.072 1.17-6.072 1.17.541 2.82 1.292 5.32 3.632 6.91 0 0 3.68.37 6.41-1.2.79-.46 1.44-1.04 2-1.64.12.56.21 1.14.21 1.75 0 3.15-2.02 5.84-2.02 5.84 2.71.94 5.25 1.54 7.8.31 0 0 2.16-3 2.16-6.15 0-.91-.18-1.78-.42-2.56.55.17 1.09.39 1.62.69 2.74 1.58 4.06 4.68 4.06 4.68 2.16-1.88 3.95-3.78 4.16-6.61 0 0-1.52-3.37-4.24-4.95-.79-.45-1.62-.73-2.42-.91.42-.38.88-.75 1.4-1.05 2.73-1.58 6.08-1.17 6.08-1.17-.55-2.82-1.3-5.32-3.64-6.91 0 0-3.68-.37-6.41 1.2-.79.46-1.44 1.04-2 1.64-.12-.56-.21-1.14-.21-1.75 0-3.15 2.02-5.845 2.02-5.845-1.69-.583-3.32-1.036-4.93-.994zm0 10.689a5 5 0 0 1 5 5 5 5 0 0 1 -5 5 5 5 0 0 1 -5-5 5 5 0 0 1 5-5zm-.01 1.51a3.486 3.486 0 0 0 -3.48 3.48 3.486 3.486 0 0 0 3.48 3.49 3.486 3.486 0 0 0 3.49-3.49 3.486 3.486 0 0 0 -3.49-3.48zm-18.99 20.49c1.105 0 2 1.06 2 2s-.895 2-2 2-2-.9-2-2 .895-2 2-2zm38 0c1.1 0 2 .9 2 2s-.9 2-2 2-2-.9-2-2 .9-2 2-2z" fill="#a0a0a0"/>
</svg>
