<svg height="48" viewBox="0 0 48 48" width="48" xmlns="http://www.w3.org/2000/svg">
  <path d="m10 0c-2.22 0-4 1.78-4 4v40c0 2.22 1.78 4 4 4h28c2.22 0 4-1.78 4-4v-40c0-2.22-1.78-4-4-4zm1 3h25.76c1.11 0 2 .892 2 2s-.89 2-2 2h-25.76c-1.11 0-2.002-.892-2.002-2s.892-2 2.002-2zm13 9c1.66 0 3 1.34 3 3v17.01c1.26.94 2 2.42 2 3.99 0 2.76-2.24 5-5 5s-5-2.24-5-5c0-1.57.74-3.05 2-3.99v-17.01c0-1.66 1.34-3 3-3zm-7.99.97v.01h2.99v1 .99h-2.99c-.55 0-1-.45-1-1s.45-1 1-1zm15.98.01c.55 0 1 .45 1 1s-.45 1-1 1h-2.99v-.98-1zm-15.98 3.97v.01h2.99v1 .99h-2.99c-.55 0-1-.45-1-1s.45-1 1-1zm12.99.01h2.99c.55 0 1 .45 1 1s-.45.98-1 1h-2.99v-.96-1zm-5 3.04c-.55 0-1 .45-1 1v12.17c-1.2.42-2 1.56-2 2.83 0 1.66 1.34 3 3 3s3-1.34 3-3c0-1.27-.8-2.4-2-2.82v-12.18c0-.55-.45-1-1-1zm-7.99.93v.01h2.99v1 .99h-2.99c-.55 0-1-.45-1-1s.45-1 1-1zm12.99.07h2.99c.55 0 1 .45 1 1s-.45 1-1 1h-2.99v-.99-1zm-12.99 3.97v.01h2.99v1 .99h-2.99c-.55 0-1-.45-1-1s.45-1 1-1zm12.99.01h2.99c.55 0 1 .45 1 1s-.45 1-1 1h-2.99v-.98-1zm-12.99 3.97v.01h2.99v1 .99h-2.99c-.55 0-1-.45-1-1s.45-1 1-1zm12.99.05h2.99c.55 0 1 .45 1 1s-.45 1-1 1h-2.99v-.99-1zm-5.02 5.22h.02a.6001.6001 0 1 1 0 1.2c-.19.01-.37.1-.48.25s-.21.35-.11.53a.6001.6001 0 1 1 -1.15.32c-.15-.54-.04-1.12.3-1.57.33-.45.86-.73 1.42-.73zm-12.98 6.78a2 2 0 0 1 2 2 2 2 0 0 1 -2 2 2 2 0 0 1 -2-2 2 2 0 0 1 2-2zm26 0a2 2 0 0 1 2 2 2 2 0 0 1 -2 2 2 2 0 0 1 -2-2 2 2 0 0 1 2-2z" fill="#a0a0a0"/>
</svg>
