<svg height="48" width="48" xmlns="http://www.w3.org/2000/svg">
  <path d="m26.59 2.002-1.95 5.648c-1.89-.077-3.73.163-5.49.711l-3.35-4.949c-2.45.776-3.63 1.457-5.53 3.193l2.61 5.375c-1.35 1.25-2.48 2.72-3.359 4.4l-5.871-1.14c-.41.97-.77 1.98-1.06 3.02-.28 1.05-.46 2.1-.59 3.15l5.652 1.95c-.08 1.89.163 3.73.711 5.49l-4.953 3.35c.78 2.45 1.461 3.63 3.197 5.53l5.373-2.61c1.25 1.35 2.72 2.48 4.4 3.36l-1.14 5.87c.97.41 1.98.78 3.02 1.06 1.05.28 2.1.47 3.15.59l1.95-5.65c1.89.1 3.73-.16 5.49-.71l3.35 4.95c2.45-.78 3.63-1.46 5.53-3.19l-2.61-5.38c1.35-1.25 2.48-2.72 3.36-4.4l5.87 1.14c.41-.97.78-1.98 1.06-3.02.28-1.05.47-2.1.59-3.15l-5.65-1.95c.1-1.89-.16-3.73-.71-5.49l4.95-3.35c-.66-2.39-1.46-3.63-3.19-5.53l-5.38 2.61c-1.25-1.35-2.72-2.48-4.4-3.359l1.14-5.867c-.97-.415-1.98-.777-3.02-1.058-1.05-.28-2.1-.47-3.15-.594zm-2.59 14.278a7.721 7.721 0 0 1 7.72 7.72 7.721 7.721 0 0 1 -7.72 7.72 7.721 7.721 0 0 1 -7.72-7.72 7.721 7.721 0 0 1 7.72-7.72z" fill="#a0a0a0"/>
</svg>
