<svg height="48" width="48" xmlns="http://www.w3.org/2000/svg">
  <path d="m509.778 597.159c-12.427 0-22.5 10.074-22.5 22.5 0 12.428 10.073 22.5 22.5 22.5s22.5-10.072 22.5-22.5c-.001-12.426-10.073-22.5-22.5-22.5zm-.559 36.414c-1.676 0-3.054-1.379-3.054-3.055s1.378-3.053 3.054-3.053c1.677 0 3.054 1.377 3.054 3.053s-1.377 3.055-3.054 3.055zm2.904-11.791c-.892 1.305-.594 3.129-3.052 3.129-1.602 0-2.385-1.305-2.385-2.496 0-4.432 6.519-5.436 6.519-9.086 0-2.012-1.34-3.203-3.576-3.203-4.767 0-2.905 4.916-6.518 4.916-1.304 0-2.421-.783-2.421-2.271 0-3.65 4.172-6.891 8.714-6.891 4.769 0 9.46 2.197 9.46 7.449.001 4.842-5.55 6.703-6.741 8.453z" fill="#a0a0a0" transform="matrix(1.0666667 0 0 1.0666667 -519.76322 -636.96962)"/>
</svg>
