<svg height="48" width="48" xmlns="http://www.w3.org/2000/svg">
  <path d="m23.951018 4.777101c-.603964.01317-1.203671.419356-1.646103 1.186162l-19.9347909 34.556057c-.8977303 1.55592-.093682 2.88068 1.6703105 2.88068h39.9058904c2.022851 0 2.499106-1.42508 1.658207-2.88068l-19.958995-34.556057c-.473415-.819485-1.090555-1.199332-1.694519-1.186162zm-.217867 8.327344c1.021907.000025 1.827998.316539 2.408638.931984.592237.615494.883558 1.435653.88357 2.469155-.000012 1.416763-.265162 3.346932-.810948 5.785567-.615478 2.810273-.972723 4.727848-1.077231 5.761361-.02323.650317-.04891 1.310991-.06052 1.972898-.06968.88257-.295087 1.42498-.689911 1.634-.15097.0929-.336135.14525-.55677.14525-.534186 0-.863786-.42267-.968296-1.25879-.01162-.0813-.01211-.7022-.0121-1.851862-.000003-2.113489-.449832-5.142056-1.355614-9.101981-.348381-1.544461-.520461-2.56238-.520459-3.050132-.000002-.882538.225403-1.661966.689911-2.32391.522566-.743184 1.210393-1.113515 2.069732-1.11354zm.02421 20.527875c.719978 0 1.341394.21183 1.863969.64149.557399.46451.835149 1.04667.835157 1.75504-.000008.77805-.251095 1.42514-.750429 1.92449-.487739.49934-1.122241.73832-1.900282.73832-.650313 0-1.218895-.23849-1.706622-.72622-.487734-.48773-.726224-1.05631-.726222-1.70662-.000002-.69676.224912-1.30509.677807-1.82766.45289-.53418 1.021472-.79884 1.706622-.79884z" fill="#a0a0a0" transform="matrix(1.0909091 0 0 1.0909091 -2.181818 -2.278239)"/>
</svg>
