<svg height="48" width="48" xmlns="http://www.w3.org/2000/svg">
  <path d="m20 0c-1.66 0-3 1.338-3 3v4h-9v6.72 27.67 6.61h6.61 18.78 6.61v-6.61-27.67-6.72h-9v-4c0-1.662-1.34-3-3-3zm-5.39 11.11h18.78c1.48 0 2.61 1.13 2.61 2.61v27.67c0 1.48-1.13 2.61-2.61 2.61h-18.78c-1.48 0-2.61-1.13-2.61-2.61v-27.67c0-1.48 1.13-2.61 2.61-2.61zm3.76 2.89c-1.87 0-3.37 1.5-3.37 3.37v3.63h18.02v-3.63c0-1.87-1.5-3.37-3.37-3.37zm-3.37 10v7h18.02v-7zm0 10v3.62c0 1.87 1.5 3.38 3.37 3.38h11.28c1.87 0 3.37-1.51 3.37-3.38v-3.62z" fill="#a0a0a0"/>
</svg>
