<svg height="48" viewBox="0 0 48 48" width="48" xmlns="http://www.w3.org/2000/svg">
  <path d="m500.406 242.875c-3.259 2.475-8.59 4.64-12.645 4.64h-.424c-12.778-1.474-21.798-12.987-18.729-26.608.371 3.474 3.716 8.432 7.932 8.919-7.578-7.298-4.221-15.888-1.61-19.784 2.509-3.743 6.424-8.108 9.019-11.677 2.434-3.405 4.42-7.089 5.394-10.981.811-3.406.982-7.343-.802-10.587 6.101 4.865 6.752 10.766 4.521 18.488-1.828 6.325-5.239 11.408-2.047 17.837 1.249 2.514 3.141 4.054 5.486 5.027-3.067-5.621-5.3-12.973 4.742-18.325-1.903 2.845-2 7.383-.453 10.704 2.223 4.771 5.229 8.892 6.853 13.946 2.401 7.47-.729 13.46-7.237 18.401z" fill="#a0a0a0" transform="matrix(.678752 0 0 .678752 -307.385 -120.001)"/>
</svg>
