<?xml version="1.0" encoding="UTF-8" standalone="no"?>
<!-- Created with Inkscape (http://www.inkscape.org/) -->

<svg
   xmlns:dc="http://purl.org/dc/elements/1.1/"
   xmlns:cc="http://creativecommons.org/ns#"
   xmlns:rdf="http://www.w3.org/1999/02/22-rdf-syntax-ns#"
   xmlns:svg="http://www.w3.org/2000/svg"
   xmlns="http://www.w3.org/2000/svg"
   xmlns:sodipodi="http://sodipodi.sourceforge.net/DTD/sodipodi-0.dtd"
   xmlns:inkscape="http://www.inkscape.org/namespaces/inkscape"
   width="48px"
   height="48px"
   id="svg3029"
   version="1.1"
   inkscape:version="0.48.4 r9939"
   sodipodi:docname="New document 2">
  <defs
     id="defs3031" />
  <sodipodi:namedview
     id="base"
     pagecolor="#ffffff"
     bordercolor="#666666"
     borderopacity="1.0"
     inkscape:pageopacity="0.0"
     inkscape:pageshadow="2"
     inkscape:zoom="9.8994949"
     inkscape:cx="15.946759"
     inkscape:cy="24.61694"
     inkscape:current-layer="layer1"
     showgrid="true"
     inkscape:grid-bbox="true"
     inkscape:document-units="px"
     inkscape:window-width="1912"
     inkscape:window-height="1022"
     inkscape:window-x="0"
     inkscape:window-y="0"
     inkscape:window-maximized="1">
    <inkscape:grid
       type="xygrid"
       id="grid3037" />
  </sodipodi:namedview>
  <metadata
     id="metadata3034">
    <rdf:RDF>
      <cc:Work
         rdf:about="">
        <dc:format>image/svg+xml</dc:format>
        <dc:type
           rdf:resource="http://purl.org/dc/dcmitype/StillImage" />
        <dc:title></dc:title>
      </cc:Work>
    </rdf:RDF>
  </metadata>
  <g
     id="layer1"
     inkscape:label="Layer 1"
     inkscape:groupmode="layer">
    <g
       id="Layer_1"
       transform="scale(1.500182,1.5)"
       style="stroke:none;stroke-opacity:1;fill:#a0a0a0;fill-opacity:1" />
    <g
       id="sun_x5F_fill"
       transform="scale(1.500182,1.5)"
       style="stroke:none;stroke-opacity:1;fill:#a0a0a0;fill-opacity:1">
      <g
         id="g6"
         style="stroke:none;stroke-opacity:1;fill:#a0a0a0;fill-opacity:1">
        <path
           inkscape:connector-curvature="0"
           style="fill:#a0a0a0;stroke:none;stroke-opacity:1;fill-opacity:1"
           d="m 16,8 c -4.422,0 -8,3.582 -8,8 0,4.418 3.578,8 8,8 4.414,0 8,-3.582 8,-8 0,-4.418 -3.586,-8 -8,-8 l 0,0 z"
           id="path8" />
        <path
           inkscape:connector-curvature="0"
           style="fill:#a0a0a0;stroke:none;stroke-opacity:1;fill-opacity:1"
           d="m 18,2 c 0,1.105 -0.898,2 -2,2 -1.109,0 -2,-0.895 -2,-2 0,-1.105 0.891,-2 2,-2 1.102,0 2,0.895 2,2 z"
           id="path10" />
        <circle
           sodipodi:ry="2"
           sodipodi:rx="2"
           sodipodi:cy="6"
           sodipodi:cx="6"
           style="fill:#a0a0a0;stroke:none;stroke-opacity:1;fill-opacity:1"
           cx="6"
           cy="6"
           r="2"
           id="circle12"
           d="M 8,6 C 8,7.1045695 7.1045695,8 6,8 4.8954305,8 4,7.1045695 4,6 4,4.8954305 4.8954305,4 6,4 7.1045695,4 8,4.8954305 8,6 z" />
        <path
           inkscape:connector-curvature="0"
           style="fill:#a0a0a0;stroke:none;stroke-opacity:1;fill-opacity:1"
           d="m 2,13.998 c 1.102,0 2,0.895 2,2 0,1.107 -0.898,2 -2,2 -1.109,0 -2,-0.893 -2,-2 0,-1.105 0.891,-2 2,-2 z"
           id="path14" />
        <circle
           sodipodi:ry="2"
           sodipodi:rx="2"
           sodipodi:cy="26"
           sodipodi:cx="6"
           style="fill:#a0a0a0;stroke:none;stroke-opacity:1;fill-opacity:1"
           cx="6"
           cy="26"
           r="2"
           id="circle16"
           d="m 8,26 c 0,1.104569 -0.8954305,2 -2,2 -1.1045695,0 -2,-0.895431 -2,-2 0,-1.104569 0.8954305,-2 2,-2 1.1045695,0 2,0.895431 2,2 z" />
        <path
           inkscape:connector-curvature="0"
           style="fill:#a0a0a0;stroke:none;stroke-opacity:1;fill-opacity:1"
           d="m 14,30 c 0,-1.109 0.891,-2 2,-2 1.109,0 2,0.891 2,2 0,1.105 -0.891,2 -2,2 -1.109,0 -2,-0.895 -2,-2 z"
           id="path18" />
        <path
           inkscape:connector-curvature="0"
           style="fill:#a0a0a0;stroke:none;stroke-opacity:1;fill-opacity:1"
           d="m 24.594,27.414 c -0.781,-0.781 -0.781,-2.047 0,-2.828 0.781,-0.781 2.047,-0.781 2.828,0 0.789,0.781 0.789,2.047 0,2.828 -0.781,0.781 -2.047,0.781 -2.828,0 z"
           id="path20" />
        <path
           inkscape:connector-curvature="0"
           style="fill:#a0a0a0;stroke:none;stroke-opacity:1;fill-opacity:1"
           d="M 29.996,17.998 C 28.898,17.998 28,17.104 28,16 c 0,-1.109 0.898,-2 2.008,-2 1.098,0 2,0.893 1.988,1.998 0.012,1.107 -0.891,2.002 -2,2 z"
           id="path22" />
        <path
           inkscape:connector-curvature="0"
           style="fill:#a0a0a0;stroke:none;stroke-opacity:1;fill-opacity:1"
           d="m 27.422,7.416 c -0.781,0.779 -2.047,0.779 -2.828,0 -0.781,-0.785 -0.781,-2.047 0,-2.83 0.781,-0.779 2.047,-0.781 2.828,0.002 0.789,0.781 0.789,2.049 0,2.828 z"
           id="path24" />
      </g>
    </g>
  </g>
</svg>
