<svg height="48" width="48" xmlns="http://www.w3.org/2000/svg">
  <g fill="#a0a0a0" transform="matrix(1.06664223 0 0 1.06664223 -647.86426654 -188.30235367)">
    <path d="m617.479 220.601c-.711 0-1.352-.282-1.803-.794-.5-.566-.715-1.361-.605-2.24l1.369-10.944c.074-.592-.266-1.638-.674-2.073l-7.539-8.051c-.75-.801-1.016-1.773-.725-2.667.291-.893 1.074-1.524 2.152-1.731l10.832-2.08c.584-.112 1.477-.76 1.766-1.284l5.137-9.317c.201-.408 1-1.799 2.498-1.799 1.574 0 2.408 1.598 2.561 1.918l5.074 9.2c.289.523 1.182 1.171 1.766 1.283l10.832 2.08c1.078.207 1.861.838 2.152 1.731.291.893.027 1.866-.725 2.667l-7.539 8.05c-.408.436-.748 1.482-.674 2.075l1.367 10.944c.109.876-.104 1.671-.604 2.238-.73.826-1.961 1.028-3.135.48l-9.984-4.685c-.199-.093-.588-.192-1.092-.192-.504 0-.895.099-1.092.191l-9.982 4.685c-.45.209-.897.315-1.333.315zm12.409-8.331c.893 0 1.752.174 2.424.489l9.16 4.297-1.252-10.044c-.189-1.515.455-3.496 1.498-4.609l6.918-7.387-9.939-1.913c-1.498-.288-3.184-1.512-3.922-2.85l-4.887-8.863-4.887 8.862c-.738 1.338-2.426 2.563-3.924 2.851l-9.936 1.908 6.916 7.391c1.043 1.113 1.688 3.094 1.498 4.61l-1.256 10.041 9.164-4.295c.673-.315 1.532-.488 2.425-.488z"/>
    <path clip-rule="evenodd" d="m629.28 189.527c0 0 .244-.523.607-.523.363 0 .627.56.627.56l2.816 5.108c.285.514.988 1.026 1.564 1.137l5.955 1.144c.578.111.721.553.32.981l-4.146 4.427c-.402.428-.67 1.256-.598 1.838l.752 6.02c.074.581-.303.855-.834.606l-5.49-2.577c-.533-.249-1.402-.249-1.934 0l-5.49 2.577c-.533.249-.908-.024-.836-.606l.754-6.02c.072-.582-.197-1.41-.598-1.838l-4.146-4.427c-.402-.429-.258-.871.318-.981l5.957-1.144c.576-.111 1.279-.623 1.564-1.137z" fill-rule="evenodd"/>
  </g>
</svg>
