<svg height="48" width="48" xmlns="http://www.w3.org/2000/svg">
  <path d="m9.369 0c-1.87 0-3.375 1.338-3.375 3v42c0 1.66 1.505 3 3.375 3h29.261c1.87 0 3.38-1.34 3.38-3v-42c0-1.662-1.51-3-3.38-3zm8.631 5h12c1.66 0 3 1.338 3 3s-1.34 3-3 3h-12c-1.66 0-3-1.338-3-3s1.34-3 3-3zm6 11a14 14 0 0 1 14 14 14 14 0 0 1 -14 14 14 14 0 0 1 -14-14 14 14 0 0 1 14-14zm0 4a10 10 0 0 0 -10 10 10 10 0 0 0 10 10 10 10 0 0 0 10-10 10 10 0 0 0 -10-10zm0 6a3.999 3.999 0 0 1 4 4 3.999 3.999 0 0 1 -4 4 3.999 3.999 0 0 1 -4-4 3.999 3.999 0 0 1 4-4z" fill="#a0a0a0"/>
</svg>
