<svg height="48" width="48" xmlns="http://www.w3.org/2000/svg">
  <path d="m21.201388 47.259562c-12.0367218-1.302232-20.70001279-10.122365-21.18000279-21.563452-.379843-9.053967 4.32388599-17.4978385 12.23829379-21.9694975 6.279494-3.54792697 13.981712-4.03959797 20.791474-1.327224 6.715199 2.674707 12.13248 8.6733815 14.091928 15.6042965.734498 2.598051.862637 3.613674.856728 6.79049-.0047 2.521798-.05287 3.189995-.318781 4.420756-.911748 4.220047-2.764257 7.795138-5.542293 10.69588-3.95966 4.134562-8.968949 6.574623-14.991957 7.302691-1.124811.135968-4.847757.16481-5.94539.04606zm4.652348-2.357433c.115749-.139471.149883-2.353025.123422-8.004194l-.03658-7.811407-2.334231-.04485c-2.152945-.04136-4.394444-.276665-5.936885-.623229-.344395-.07738-.677346-.109066-.73989-.07041-.06255.03866-.113717 3.569446-.113717 7.846205v7.775922l.389039.149036c.564613.216294 2.86774.683781 4.044357.820918 1.752707.204283 4.421684.182261 4.604478-.038zm4.330906-.599193c1.372827-.343834 3.779412-1.219911 4.137955-1.506356.137604-.109934.176836-1.863624.176836-7.904724 0-8.894986.180738-8.000534-1.501048-7.428521-.541603.184212-1.873715.53894-2.960252.788286-1.086535.249345-2.166502.498883-2.399925.554527l-.424405.101172-.03675 7.775493c-.02021 4.276521-.0032 7.863125.03779 7.970231.09511.248457 1.011017.140481 2.969793-.350108zm-14.534654-8.477669c.02294-4.773285-.01454-7.670357-.100312-7.756136-.07531-.07531-.855612-.35454-1.73401-.620516s-2.446253-.829117-3.484122-1.251427c-1.0378678-.422307-1.9451358-.731924-2.0161488-.688035-.07487.04627-.129115 2.865227-.129115 6.709617v6.629819l.359217.426906c.478719.568925 2.1977518 1.852541 3.5577028 2.656566 1.249049.738458 3.15686 1.619206 3.36871 1.555178.09144-.02763.154417-2.737318.178078-7.661972zm22.739831 4.451531c.861213-.688249 2.540451-2.363117 3.229486-3.221079l.377962-.470627v-6.284497c0-3.456474-.0547-6.284496-.121546-6.284496-.06685 0-.623882.232306-1.23785.516236-.613967.283932-1.943894.848199-2.955395 1.253928l-1.839091.737689-.03677 7.552491c-.02022 4.153871-.0053 7.634664.03314 7.735097.08194.214032 1.215423-.46815 2.55006-1.534742zm-31.3352878-9.185493v-6.364308l-.968286-.487619c-.532557-.268192-1.299288-.682788-1.703847-.921325-.404561-.238536-.79896-.433703-.876444-.433703-.09143 0-.126488 1.576576-.09988 4.491627l.04101 4.491626.656849 1.367611c.899965 1.873802 2.47559 4.220398 2.833791 4.220398.06425 0 .116809-2.863938.116809-6.364307zm36.9587638 2.014149c.629736-1.38294 1.152338-3.0391 1.4676-4.650921.282138-1.442466.368343-5.876374.11911-6.126246-.100774-.101033-.485273.03113-1.237851.42548l-1.09167.572037v5.438015c0 2.990908.05481 5.438016.121782 5.438016.06698 0 .346443-.493372.621029-1.096381zm-16.593366-5.499392c3.983045-.609227 9.300233-2.463721 14.966376-5.219879 2.355157-1.145606 3.006207-1.520844 3.006207-1.732651 0-.373596-.518499-2.367725-.707427-2.720742-.149079-.278556-.171302-.271201-.620893.205506-.983455 1.042766-2.747149 1.562029-4.969732 1.463181-1.160388-.05161-1.575173-.133958-2.264673-.449622-1.710027-.782876-2.313487-1.89277-1.634526-3.006243 1.092588-1.791804 4.620956-2.385836 7.430537-1.250995.463744.187315.866614.317127.895265.288476.161421-.161421-1.455914-2.784965-2.556334-4.146735l-.714487-.884179-.930212.000849c-1.083942.000972-3.376825.326522-4.602617.653493-1.337309.356717-3.310795 1.372787-4.343028 2.236049-.518102.433293-.980937.787806-1.028521.787806-.254637 0 .643917-1.318774 1.413139-2.074015 1.551143-1.522943 4.041262-2.5059515 6.817371-2.6912475.719722-.04804 1.308584-.135893 1.308584-.195231 0-.181569-1.703295-1.55069-2.900104-2.331128-2.150197-1.402138-4.33247-2.358087-6.719758-2.943603-5.145695-1.262054-10.374677-.652609-15.136757 1.76421-1.52269.772784-4.6490408 2.951791-4.7702678 3.324786-.03584.110271.566599.181093 1.9700918.231604 3.351109.120606 5.580646.909215 7.235906 2.5594075 1.401437 1.397145 1.727542 2.396713.389417 1.193621-1.953185-1.756081-5.539452-2.7429585-9.5596698-2.630651l-1.551101.04333-1.136849 1.502702c-1.132781 1.497328-2.342688 3.563137-2.181355 3.724471.04669.04669.479098-.101552.960917-.329417 1.881282-.889706 4.379911-.891941 6.2014968-.0055 1.12797.548875 1.668112 1.218888 1.64981 2.046492-.02405 1.087564-.929536 1.906526-2.655608 2.401852-1.0803388.31002-3.6463628.233881-4.6876098-.139092-.906434-.324685-1.790762-.933876-2.044854-1.408653-.109554-.204705-.267227-.34993-.350385-.322724-.15563.05092-.730964 1.890414-.878038 2.80732-.08016.499779-.05843.531643.688323 1.009339 1.503626.961859 4.166822 2.367205 6.050933 3.193026 6.4459248 2.825301 12.5880528 3.866583 17.9604328 3.044851z" fill="#a0a0a0" stroke="#a0a0a0" stroke-width=".5"/>
</svg>
