<svg height="48" width="48" xmlns="http://www.w3.org/2000/svg">
  <path d="m21.478197 47.254647c-7.41704-.73642-13.9815603-4.4821-17.7362803-10.12022-2.85206997-4.28269-4.10327997-9.20137-3.65193997-14.35638.29685-3.39056.98916997-5.84985 2.50222997-8.88857 3.60096-7.2318797 10.5399103-12.1056797 18.6443103-13.09545969 1.95406-.23865 5.57173-.10323 7.49035.28036999 3.64967.7297 7.19586 2.35197 10.08242 4.61239 1.29444 1.01365 3.534 3.27469 4.48129 4.5242597 2.10815 2.7809 3.66434 6.27502 4.3901 9.85715.28176 1.39067.32394 2.01419.31895 4.71512-.005 2.67125-.0502 3.31688-.31923 4.55396-.61149 2.81177-1.73622 5.48244-3.30346 7.84405-1.18996 1.79313-4.11308 4.70937-5.92134 5.90741-3.39534 2.24955-7.3281 3.65653-11.48954 4.1105-1.27289.13885-4.33596.16979-5.48786.0554zm6.57874-2.51386c9.69366-1.65014 16.47421-8.39628 17.61916-17.52974.21586-1.72194.11018-4.9453-.21642-6.60135-1.52293-7.72211-7.09525-14.0976697-14.46586-16.5510897-2.61488-.87041-3.78268-1.04779-6.89827-1.04782-2.37637-.00001-3.05763.0493-4.2535.30808-2.08258.45062-3.45823.92748-5.36703 1.86044-2.25317 1.10128-3.91243 2.29626-5.8080103 4.18286-6.86169 6.8292197-8.37421997 17.5115497-3.61932 25.5617597 3.24937 5.5013 9.1713303 9.1422 16.2890303 10.0147 1.44204.17677 5.16316.0672 6.72022-.19784zm-2.27478-6.32284c-.12886-.20849 1.03658-1.66686 1.39368-1.74398.17336-.0374 1.2065-.20307 2.29588-.36806 1.08939-.165 2.03291-.34978 2.09673-.41064.0638-.0609-.68408-1.34447-1.66199-2.85248-.97791-1.508-1.77819-2.83973-1.7784-2.95939-.00014-.11966.18141-.43532.4036-.70147l.40399-.48391 2.49447 3.74006c1.94337 2.91377 2.4558 3.77585 2.31947 3.9021-.0963.0891-1.70296.52428-3.57048.967-1.86751.44272-3.60189.85937-3.85417.92589-.27905.0736-.49162.0677-.54278-.0151zm-17.0370103-9.9335c-2.03712-.48333-3.26344-1.57898-3.04867-2.72382.47213-2.51667 6.5128203-3.3543 8.8649903-1.22926 1.37805 1.24499.76215 2.90726-1.37661 3.7154-1.03798.3922-3.2820603.51234-4.4397103.23768zm28.6748203-.78789c-2.61324-.86137-3.27081-2.65843-1.47419-4.02877 1.98752-1.51597 6.27369-1.29582 7.9921.4105.53967.53587.60128.6661.60128 1.27093s-.0616.73506-.60128 1.27094c-.9162.90975-1.92226 1.2364-3.99676 1.29766-1.38899.041-1.84749.00085-2.52115-.22126zm-20.69789-7.07964c-1.35731-.32403-2.80796-1.55384-3.13995-2.66195-.39486-1.3179-.0981-3.04686.69168-4.02961.54168-.67406.42898-.8086-.68005-.81185-1.03077-.003-2.41237.48636-3.6155903 1.28069-.87565.57808-1.027.63711-1.0644.41519-.0756-.44857.81829-1.99601 1.6108003-2.78852 3.10408-3.1040797 8.81269-1.73941 10.98409 2.6258.8245 1.65752.5473 3.22175-.83395 4.70589-1.12398 1.2077-2.43429 1.62684-3.95263 1.26436zm13.45703-.19031c-.74809-.36085-1.86571-1.45251-2.25219-2.19989-.12707-.24572-.29062-.76097-.36345-1.145-.53169-2.80359 2.9307-6.37453 6.53447-6.73934 1.81828-.18407 3.59538.43198 4.84189 1.67849.79251.79251 1.6864 2.33995 1.6108 2.78852-.0373.22124-.19727.15725-1.10469-.44185-1.2068-.79676-2.52389-1.25719-3.58723-1.25403-1.09667.003-1.20861.13928-.66812.81185.57138.71101.85987 1.66459.85987 2.84224 0 1.14756-.33767 1.89794-1.22012 2.71135-.85345.78668-1.70104 1.14009-2.92981 1.2216-.86715.0575-1.11648.0178-1.72142-.27394z" fill="#a0a0a0" stroke="#a0a0a0" stroke-width=".5"/>
</svg>
