<svg height="48" width="48" xmlns="http://www.w3.org/2000/svg">
  <path d="m24-.009766c-13.25-.0001-23.990134 10.739766-23.990234 23.989766 0 13.25 10.740234 23.99 23.990234 23.99s23.99-10.74 23.99-23.99-10.74-23.989766-23.99-23.989766zm0 5.001766c10.5 0 19.01 8.508 19.01 19.008s-8.51 19.01-19.01 19.01-19.008-8.51-19.008-19.01c.001-10.5 8.508-19.007 19.008-19.008zm-8 11.008v3.56l4.44 4.44-4.44 4.45v3.55h3.56l4.44-4.44 4.82 4.44h3.18v-3.55l-4.44-4.45 4.44-4.75v-3.25h-3.55l-4.45 4.44-4.44-4.44z" fill="#a0a0a0"/>
</svg>
