<svg height="48" width="48" xmlns="http://www.w3.org/2000/svg">
  <path d="m12.998415 36.050657c.000776.97522.5657 1.211307 1.25656.520447l11.94222-11.94222c.346184-.346185.346172-.911857.000727-1.257303l-11.941997-11.941996c-.691645-.691644-1.257312-.456337-1.258045.5219l.000923 7.604906-13.15528843-.000292-.00055649 8.888605 13.15528792.000292z" fill="#a0a0a0"/>
  <path d="m46.982192 14.821599c.559016.558099 1.017808.369762 1.017808-.421599v-13.6794808c0-.3965446-.324005-.7205186-.719723-.7205192l-13.679933.0000005c-.792299.0000005-.981518.4587473-.421639 1.0194387l4.356359 4.3550757-7.535064 7.5343431 5.090768 5.091142 7.535066-7.534341z" fill="#a0a0a0"/>
  <path d="m33.178401 46.982192c-.558099.559016-.369762 1.017808.421599 1.017808h13.679481c.396544 0 .720518-.324005.720519-.719723l-.000001-13.679933c0-.792299-.458747-.981518-1.019438-.421639l-4.355076 4.356359-7.534343-7.535064-5.091142 5.090768 7.534341 7.535066z" fill="#a0a0a0"/>
</svg>
