<svg height="48" width="48" xmlns="http://www.w3.org/2000/svg">
  <path d="m35.972136 34.923064c.97522-.000776 1.211307-.5657.520447-1.25656l-11.94222-11.94222c-.346185-.346184-.911857-.346172-1.257303-.000727l-11.941996 11.941997c-.691644.691645-.456337 1.257312.5219 1.258045l7.604906-.000923-.000292 13.155288 8.888605.000557.000292-13.155288z" fill="#a0a0a0"/>
  <path d="m14.743078.93928704c.558099-.559016.369762-1.017808-.421599-1.017808h-13.67948076c-.3965446 0-.7205186.324005-.7205192.719723l.0000005 13.67993296c.0000005.792299.4587473.981518 1.0194387.421639l4.35507566-4.356359 7.5343431 7.535064 5.091142-5.090768-7.534341-7.535066z" fill="#a0a0a0"/>
  <path d="m46.903671 14.743078c.559016.558099 1.017808.369762 1.017808-.421599v-13.67948096c0-.396544-.324005-.720518-.719723-.720519l-13.679933.000001c-.792299 0-.981518.458747-.421639 1.019438l4.356359 4.35507596-7.535064 7.534343 5.090768 5.091142 7.535066-7.534341z" fill="#a0a0a0"/>
</svg>
