<svg height="48" width="48" xmlns="http://www.w3.org/2000/svg">
  <path d="m34.844543 11.949343c-.000776-.97522-.5657-1.211307-1.25656-.520447l-11.94222 11.94222c-.346184.346185-.346172.911857-.000727 1.257303l11.941997 11.941996c.691645.691644 1.257312.456337 1.258045-.5219l-.000923-7.604906 13.155289.000292.000556-8.888605-13.155288-.000292z" fill="#a0a0a0"/>
  <path d="m .86076608 33.178401c-.559016-.558099-1.017808-.369762-1.017808.421599v13.679481c0 .396544.324005.720518.719723.720519h13.67993292c.792299-.000001.981518-.458748.421639-1.019439l-4.356359-4.355076 7.535064-7.534343-5.090768-5.091142-7.5350659 7.534341z" fill="#a0a0a0"/>
  <path d="m14.664557 1.017808c.558099-.559016.369762-1.017808-.421599-1.017808h-13.67948092c-.396544 0-.720518.324005-.720519.719723l.000001 13.679933c0 .792299.458747.981518 1.019438.421639l4.35507602-4.356359 7.5343429 7.535064 5.091142-5.090768-7.534341-7.535066z" fill="#a0a0a0"/>
</svg>
