<svg height="48" width="48" xmlns="http://www.w3.org/2000/svg">
  <path d="m11.870822 13.076936c-.97522.000776-1.211307.5657-.520447 1.25656l11.94222 11.94222c.346185.346184.911857.346172 1.257303.000727l11.941996-11.941997c.691644-.691645.456337-1.257312-.5219-1.258045l-7.604906.000923.000292-13.15528847-8.888605-.00055649-.000292 13.15528796z" fill="#a0a0a0"/>
  <path d="m33.09988 47.060713c-.558099.559016-.369762 1.017808.421599 1.017808h13.679481c.396544 0 .720518-.324005.720519-.719723v-13.679933c-.000001-.792299-.458748-.981518-1.019439-.421639l-4.355076 4.356359-7.534343-7.535064-5.091142 5.090768 7.534341 7.535066z" fill="#a0a0a0"/>
  <path d="m .93928704 33.256922c-.559016-.558099-1.017808-.369762-1.017808.421599v13.679481c0 .396544.324005.720518.719723.720519l13.67993296-.000001c.792299 0 .981518-.458747.421639-1.019438l-4.356359-4.355076 7.535064-7.534343-5.090768-5.091142-7.535066 7.534341z" fill="#a0a0a0"/>
</svg>
