<svg height="48" width="48" xmlns="http://www.w3.org/2000/svg">
  <path d="m32 8c0-4.416-3.586-8-8-8-2.984 0-5.562 1.658-6.938 4.086 0-.002.004-.004.004-.006-.367-.035-.723-.111-1.098-.111-6.629 0-12 5.371-12 12 0 2.527.789 4.867 2.121 6.797l-6.089 9.234 9.289-6.062c1.91 1.281 4.207 2.031 6.68 2.031 6.629 0 12-5.371 12-12 0-.346-.07-.67-.102-1.008 2.453-1.367 4.133-3.955 4.133-6.961zm-16.031 15.969c-4.414 0-8-3.586-8-8 0-4.412 3.586-8 8-8 .012 0 .023.004.031.004 0-.008.004-.014.004-.02 0 .016-.004.031-.004.047 0 .695.117 1.355.281 1.998l-3.172 3.174c-1.562 1.562-1.562 4.094 0 5.656 1.562 1.562 4.094 1.562 5.656 0l3.141-3.141c.66.18 1.344.305 2.059.309-.016 4.402-3.594 7.973-7.996 7.973zm8.031-11.969c-2.203 0-4-1.795-4-4 0-2.205 1.797-4 4-4 2.203 0 4 1.795 4 4 0 2.205-1.797 4-4 4z" fill="#a0a0a0" transform="scale(1.5)"/>
</svg>
