<svg height="48" width="48" xmlns="http://www.w3.org/2000/svg">
  <g fill="#a0a0a0" transform="matrix(1.0666193 0 0 1.0666667 -583.93887 -124.2592)">
    <path d="m564.624 117.671c.646-.647.428-1.178-.488-1.178h-15.834c-.459 0-.834.375-.834.833v15.833c0 .917.531 1.136 1.18.488l5.041-5.042 8.721 8.721 5.893-5.892-8.721-8.721z"/>
    <path d="m564.136 161.493c.916 0 1.135-.531.488-1.178l-5.043-5.042 8.721-8.721-5.893-5.892-8.721 8.721-5.041-5.042c-.648-.648-1.18-.428-1.18.488v15.833c0 .459.375.833.834.833z"/>
    <path d="m592.468 117.326c0-.459-.373-.833-.832-.833h-15.834c-.916 0-1.137.531-.488 1.178l5.043 5.042-8.721 8.721 5.891 5.892 8.721-8.721 5.043 5.042c.648.648 1.178.428 1.178-.488v-15.833z"/>
    <path d="m591.636 161.493c.459 0 .832-.375.832-.833v-15.833c0-.917-.529-1.136-1.178-.488l-5.043 5.042-8.721-8.721-5.891 5.892 8.721 8.721-5.043 5.042c-.648.647-.428 1.178.488 1.178z"/>
  </g>
</svg>
