<svg height="48" width="48" xmlns="http://www.w3.org/2000/svg">
  <g fill="#a0a0a0" transform="matrix(1.0666667 0 0 1.0666667 -7.655467 -379.42721)">
    <path d="m26.103 394.151-9.961-9.962h-8.965v-11.953h8.965l9.961-9.962z"/>
    <path d="m34.567 369.749-2.816 2.816c1.447 1.446 2.344 3.444 2.344 5.647s-.896 4.201-2.344 5.646l2.816 2.816c2.168-2.168 3.512-5.161 3.512-8.463s-1.344-6.293-3.512-8.462z"/>
    <path d="m39.704 365.025-2.816 2.816c2.645 2.645 4.283 6.297 4.283 10.324s-1.639 7.68-4.283 10.324l2.816 2.816c3.365-3.367 5.451-8.015 5.451-13.141 0-5.123-2.086-9.771-5.451-13.139z"/>
    <path d="m44.56 359.854-2.816 2.816c3.982 3.982 6.449 9.48 6.449 15.543s-2.467 11.561-6.447 15.543l2.814 2.816c4.705-4.704 7.617-11.197 7.617-18.359s-2.914-13.655-7.617-18.359z"/>
  </g>
</svg>
