<svg height="48" viewBox="0 0 48 48" width="48" xmlns="http://www.w3.org/2000/svg">
  <path d="m24 0c-1.3 0-2.3 1-2.3 2.3v4.7c0 1.3 1 2.3 2.3 2.3s2.3-1 2.3-2.3v-4.7c0-1.3-1-2.3-2.3-2.3zm-15.3 6.4c-.6 0-1.2.2-1.7.6-.9.9-.9 2.4 0 3.3l3.3 3.3c.5.5 1.1.7 1.7.7s1.1-.2 1.6-.7c.9-.9.9-2.4 0-3.3l-3.3-3.3c-.4-.4-1-.6-1.6-.6zm30.6 0c-.6 0-1.2.2-1.6.6l-3.3 3.3c-.9.9-.9 2.4 0 3.3.5.5 1 .7 1.6.7s1.2-.2 1.7-.7l3.3-3.3c.9-.9.9-2.4 0-3.3-.5-.4-1.1-.6-1.7-.6zm-15.3 7.5c-5.6 0-10.1 4.6-10.1 10.1 0 5.6 4.5 10.1 10.1 10.1 5.5 0 10.1-4.5 10.1-10.1 0-5.5-4.6-10.1-10.1-10.1zm-21.7 7.8c-1.3 0-2.3 1-2.3 2.3s1 2.3 2.3 2.3h4.7c1.2 0 2.3-1 2.3-2.3s-1.1-2.3-2.3-2.3zm38.7 0c-1.3 0-2.3 1-2.3 2.3s1 2.3 2.3 2.3h4.7c1.3 0 2.3-1 2.3-2.3s-1-2.3-2.3-2.3zm-29 12c-.6 0-1.2.2-1.7.7l-3.3 3.3c-.9.9-.9 2.4 0 3.3.5.4 1.1.7 1.7.7s1.2-.3 1.6-.7l3.3-3.3c.9-.9.9-2.4 0-3.3-.5-.5-1-.7-1.6-.7zm24 0c-.6 0-1.1.2-1.6.7-.9.9-.9 2.4 0 3.3l3.3 3.3c.4.4 1 .7 1.6.7s1.2-.3 1.7-.7c.9-.9.9-2.4 0-3.3l-3.3-3.3c-.5-.5-1.1-.7-1.7-.7zm-12 5c-1.3 0-2.3 1.1-2.3 2.3v4.7c0 1.3 1 2.3 2.3 2.3s2.3-1 2.3-2.3v-4.7c0-1.2-1-2.3-2.3-2.3z" fill="#a0a0a0"/>
</svg>
