<svg height="48" width="48" xmlns="http://www.w3.org/2000/svg">
  <path d="m4.2630208 9.875c-1.2414899 0-2.2630208 1.088475-2.2630208 2.463542v23.947916c0 1.375067 1.021531 2.463544 2.2630208 2.463542h39.4739582c1.24149 0 2.26302-1.088476 2.263021-2.463542v-23.947916c0-1.375067-1.021532-2.463542-2.263021-2.463542zm1.0598959 4.841146h4.3828125v3.666667h-4.3828125zm6.5885413 0h4.382813v3.666667h-4.382813zm6.588542 0h4.411458v3.666667h-4.411458zm6.588542 0h4.411458v3.666667h-4.411458zm6.617187 0h4.382813v3.666667h-4.382813zm6.588542 0h4.382812v3.666667h-4.382812zm-29.6770835 7.763021h4.3828125v3.666666h-4.3828125zm6.5885415 0h4.382813v3.666666h-4.382813zm6.588542 0h4.411458v3.666666h-4.411458zm6.617187 0h4.382813v3.666666h-4.382813zm6.588542 0h4.382812v3.666666h-4.382812zm-29.6770833 7.763021h5.4713543v3.666666h-5.4713543zm7.6770833 0h20.882812v3.666666h-20.882812zm23.088542 0h6.588541v3.666666h-6.588541z" fill="#a0a0a0" transform="matrix(1.0909091 0 0 1.1774892 -2.181818 -4.627706)"/>
</svg>
