<svg height="48" width="48" xmlns="http://www.w3.org/2000/svg">
  <g fill="#a0a0a0" transform="matrix(1.066643 0 0 1.0990077 -392.68889 -194.82397)">
    <path d="m412.51 211.853c.354.375.645.26.645-.256v-24.754c0-.516-.321-.664-.714-.329l-12.536 10.671c-.394.334-.425.914-.07 1.289z"/>
    <path d="m410.761 184.249c.394-.334.292-.607-.223-.607h-40.092c-.515 0-.614.271-.219.602l19.701 16.524c.396.331 1.041.329 1.434-.006z"/>
    <path d="m368.154 211.597c0 .516.29.631.645.256l12.625-13.326c.354-.375.321-.951-.074-1.283l-12.477-10.465c-.396-.332-.719-.181-.719.335z"/>
    <path d="m392.28 203.674c-.393.335-.979.759-1.302.943 0 0 0 0-.324 0-.321 0-.321 0-.321 0-.32-.181-.905-.6-1.301-.931l-4.086-3.428c-.396-.332-1.009-.297-1.363.078l-12.847 13.561c-.354.375-.223.682.293.682h39.25c.516 0 .647-.307.293-.682l-12.883-13.599c-.354-.374-.966-.407-1.358-.073z"/>
  </g>
</svg>
