<svg height="48" width="48" xmlns="http://www.w3.org/2000/svg">
  <path d="m7.2708333 4.6313875c-2.9176155 0-5.2708333 2.2969107-5.2708333 5.1276047v28.3307288c0 2.830694 2.3532178 5.098958 5.2708333 5.098958h33.4583337c2.917615 0 5.270833-2.268263 5.270833-5.098958v-28.3307288c0-2.8306944-2.353216-5.1276047-5.270833-5.1276047zm2.40625 4.2968747h28.6458337c1.872792 0 3.380208 1.4920968 3.380208 3.3515628v23.260416c.000001 1.859466-1.507414 3.351563-3.380208 3.351563h-28.6458337c-1.872794-.000001-3.3802083-1.492097-3.3802083-3.351563v-23.260416c0-1.859466 1.5074148-3.3515628 3.3802083-3.3515628zm19.0494787.34375c-1.049495.097-1.934293.8229868-2.234375 1.8333338l-5.84375 19.049479-1.947916-2.835938c-.480134-.698051-1.272561-1.11568-2.119792-1.117187h-7.4192707c-.9297575-.01314-1.794308.485987-2.2630208 1.289062-.4687129.803076-.4687129 1.77505 0 2.578125.4687128.803075 1.3332633 1.302201 2.2630208 1.289063h6.0729167l4.153646 6.130208c.558717.828544 1.533342 1.270525 2.520833 1.117188.987491-.153338 1.809991-.874375 2.091146-1.833334l5.15625-16.815104 3.552083 9.710938c.370753 1.010343 1.330046 1.684133 2.40625 1.690104h3.723959c.929757.01314 1.794308-.485987 2.26302-1.289063.468714-.803076.468714-1.77505 0-2.578125-.468712-.803074-1.333263-1.302201-2.26302-1.289062h-1.919271l-5.557292-15.239583c-.396752-1.0932728-1.476305-1.7855958-2.635417-1.6901048z" fill="#a0a0a0" transform="matrix(1.0909091 0 0 1.0909091 -2.181818 -2.083673)"/>
</svg>
