<svg height="48" width="48" xmlns="http://www.w3.org/2000/svg">
  <g fill="#a0a0a0" transform="matrix(1.0666311 0 0 1.0666311 -7.654145 -316.52731)">
    <path d="m27.534 302.112v34.286l-10.714-10.714h-9.644v-12.857h9.644z"/>
    <path d="m47.081 319.255 4.918-4.917c.238-.24.238-.631 0-.87l-2.607-2.606c-.237-.238-.629-.238-.866 0l-4.919 4.918-4.92-4.918c-.236-.238-.629-.238-.867 0l-2.605 2.606c-.239.239-.239.63 0 .87l4.917 4.917-4.917 4.917c-.239.24-.239.632 0 .87l2.607 2.607c.236.236.629.236.867 0l4.918-4.919 4.916 4.919c.24.236.632.236.869 0l2.607-2.607c.236-.237.236-.63 0-.87z"/>
  </g>
</svg>
