<svg height="48" width="48" xmlns="http://www.w3.org/2000/svg">
  <path d="m24.306453 10.754002-17.2642905 3.823024c-.1844549.04197-.3403576.164469-.4247805.333756l-4.551219 8.829365c-.0973.197298-.087362.420981.030342.606829.1177036.185848.3261907.307045.5461463.303414h4.2177057v11.590438c.00335.289729-.2819262.539962 0 .606829l17.870878 4.278146c.11873.03577.245366.03577.364097 0l17.567704-6.098633c.257881-.08919.429247-.333998.424781-.606829v-11.761814h2.275609c.201509.0014.395859-.0808.515805-.242731.119947-.161928.15107-.384128.09103-.576488l-3.276878-8.081502c-.08071-.208058-.26529-.358028-.485463-.394439l-17.719418-2.609365c-.06036-.0088-.121684-.0088-.182049 0zm-.910244 2.396975v25.244095l-15.261754-3.51961v-18.2959zm2.214927 2.27561 2.761073 6.432389c.09079.225767.303282.379232.546146.394439l11.924194.364098v10.831901l-15.231413 5.188389zm-18.7510223 1.790146.0002428 6.235291h-3.1860961zm10.9532673 1.45639-5.704195.819219v7.221268l-2.184585.09102 5.158048 8.374243 6.493073-8.859706-3.762341.121366v-7.767414z" fill="#a0a0a0" transform="matrix(1.090909 0 0 1.090909 -2.181817 -4.309106)"/>
</svg>
