<svg height="48" width="48" xmlns="http://www.w3.org/2000/svg">
  <path d="m28.417332 2.3030281c-9.711053 0-17.61212 7.8820939-17.61212 17.5698269 0 4.31388 1.586616 8.25685 4.182142 11.311678l-4.182142 1.292764-8.2464781 7.668436c-.5864158.546007-1.0897131 3.290669.5595824 4.936005 1.9437135 1.939046 4.4173942 1.125259 4.9478866.558239l7.6868951-8.226675 1.295875-4.1721c3.072454 2.596703 7.031164 4.1721 11.368359 4.1721 9.711052.000001 17.582668-7.852714 17.582668-17.540447-.000001-9.687733-7.871616-17.5698269-17.582668-17.5698269zm0 4.4071474c7.283289 0 13.194364 5.8968805 13.194364 13.1626795 0 7.2658-5.911076 13.162679-13.194364 13.16268-7.283289 0-13.194364-5.89688-13.194364-13.16268 0-7.265799 5.911074-13.1626794 13.194364-13.1626795z" fill="#a0a0a0" transform="matrix(1.0909091 0 0 1.0909091 -2.181818 -2.512394)"/>
</svg>
