<?xml version="1.0" encoding="UTF-8" standalone="no"?>
<!-- Created with Inkscape (http://www.inkscape.org/) -->

<svg
   xmlns:dc="http://purl.org/dc/elements/1.1/"
   xmlns:cc="http://creativecommons.org/ns#"
   xmlns:rdf="http://www.w3.org/1999/02/22-rdf-syntax-ns#"
   xmlns:svg="http://www.w3.org/2000/svg"
   xmlns="http://www.w3.org/2000/svg"
   xmlns:sodipodi="http://sodipodi.sourceforge.net/DTD/sodipodi-0.dtd"
   xmlns:inkscape="http://www.inkscape.org/namespaces/inkscape"
   width="48px"
   height="48px"
   id="svg2985"
   version="1.1"
   inkscape:version="0.48.4 r9939"
   sodipodi:docname="star.svg">
  <defs
     id="defs2987" />
  <sodipodi:namedview
     id="base"
     pagecolor="#ffffff"
     bordercolor="#666666"
     borderopacity="1.0"
     inkscape:pageopacity="0.0"
     inkscape:pageshadow="2"
     inkscape:zoom="1.75"
     inkscape:cx="-131.03682"
     inkscape:cy="69.451968"
     inkscape:current-layer="layer1"
     showgrid="true"
     inkscape:grid-bbox="true"
     inkscape:document-units="px"
     inkscape:window-width="1912"
     inkscape:window-height="1036"
     inkscape:window-x="0"
     inkscape:window-y="0"
     inkscape:window-maximized="1" />
  <metadata
     id="metadata2990">
    <rdf:RDF>
      <cc:Work
         rdf:about="">
        <dc:format>image/svg+xml</dc:format>
        <dc:type
           rdf:resource="http://purl.org/dc/dcmitype/StillImage" />
        <dc:title></dc:title>
      </cc:Work>
    </rdf:RDF>
  </metadata>
  <g
     id="layer1"
     inkscape:label="Layer 1"
     inkscape:groupmode="layer">
    <path
       style="fill:#a0a0a0;fill-opacity:1"
       d="m 9.695646,47.668639 c 0,-0.11508 1.2395,-4.14742 2.754445,-8.96076 1.514944,-4.81333 2.754444,-8.82842 2.754444,-8.92242 0,-0.094 -3.42102,-2.58376 -7.602267,-5.53278 C 3.42102,21.303649 3.3175425e-8,18.808148 3.3175425e-8,18.707119 3.3175425e-8,18.606091 4.152579,18.523431 9.227952,18.523431 c 7.114134,0 9.280064,-0.0631 9.455441,-0.275445 0.125115,-0.151494 1.4798,-4.19119 3.010407,-8.9770986 2.553527,-7.98438 3.031835,-9.29676698 3.288228,-9.02227898 0.231386,0.247715 5.867754,17.88945358 5.867754,18.36596958 0,0.591675 -0.207396,0.784656 -1.204541,1.120808 -0.648539,0.218633 -0.738268,0.393963 -1.105039,2.159263 -0.09778,0.47062 -0.362727,0.71732 -1.118122,1.04112 l -0.989976,0.42435 0.335818,0.80372 c 0.486137,1.1635 0.420427,1.57625 -0.311169,1.95458 -0.481712,0.2491 -0.664654,0.51792 -0.716155,1.05234 -0.05548,0.5757 -0.17822,0.73238 -0.620061,0.79153 -0.732517,0.0981 -0.82019,0.20364 -1.19028,1.43336 -0.316031,1.05009 -0.315326,1.05366 0.360868,1.8238 0.635935,0.72429 0.654683,0.79452 0.305455,1.14428 -0.204636,0.20495 -0.837144,0.47194 -1.405576,0.5933 -0.972072,0.20755 -1.071314,0.29704 -1.669423,1.50533 l -0.635911,1.28465 0.553454,0.58806 c 0.527309,0.56027 0.541718,0.6441 0.305032,1.77441 l -0.248425,1.18636 -5.603472,4.17722 c -5.63124,4.1979 -6.196613,4.58071 -6.196613,4.19558 z m 22.617445,-5.4589 c -6.084712,-4.55729 -7.295324,-5.3794 -7.752524,-5.26465 -0.723701,0.18164 -0.692705,-0.20236 0.06417,-0.79499 0.482896,-0.37811 0.628357,-0.70584 0.716155,-1.61357 l 0.110178,-1.1391 1.388392,-0.73418 c 1.313362,-0.6945 1.41714,-0.71534 1.92036,-0.38562 0.292581,0.19171 0.675379,0.34856 0.850663,0.34856 0.549879,0 1.459653,-1.29401 1.459653,-2.07613 0,-1.34924 1.423349,-1.95219 2.115336,-0.89608 0.199459,0.30441 0.594319,0.61162 0.877465,0.68268 0.283146,0.0711 0.615372,0.25038 0.738279,0.39848 0.203117,0.24474 5.083143,16.2723 5.083143,16.69465 0,0.0993 -0.08113,0.18058 -0.180277,0.18058 -0.09915,0 -3.425102,-2.43028 -7.390993,-5.40063 z m -9.616466,-6.9462 c 0,-0.50403 0.578974,-0.82439 0.903458,-0.4999 0.316409,0.31641 -0.0075,0.94753 -0.486322,0.94753 -0.27238,0 -0.417136,-0.15534 -0.417136,-0.44763 z m 5.66462,-5.28459 c -0.17461,-0.66771 0.156584,-1.64008 0.58686,-1.72298 0.930026,-0.17919 1.374077,1.11709 0.617282,1.80198 -0.54514,0.49334 -1.063362,0.45934 -1.204142,-0.079 z m 1.706618,-3.0938 c -0.327576,-0.36197 -0.57173,-0.4251 -1.220249,-0.31554 -0.783102,0.13231 -0.814761,0.11206 -0.928857,-0.59418 -0.06497,-0.40213 -0.150972,-0.91575 -0.191125,-1.14137 -0.07397,-0.41565 0.103596,-0.56345 1.194039,-0.99383 0.487558,-0.19243 0.606636,-0.38004 0.609351,-0.96005 0.0045,-0.95138 0.264151,-1.32025 1.142476,-1.62274 0.646384,-0.222616 0.720432,-0.331081 0.666505,-0.976282 -0.04236,-0.506823 0.08772,-0.883798 0.431097,-1.249303 0.438181,-0.466423 0.463024,-0.599591 0.228013,-1.222209 -0.236944,-0.627737 -0.210711,-0.755743 0.258135,-1.259527 0.287038,-0.308427 0.635504,-0.781744 0.774369,-1.051815 0.176232,-0.342739 0.712373,-0.630724 1.775225,-0.953556 l 1.522741,-0.462519 3.374968,0.813332 c 1.85623,0.447331 3.507428,0.938066 3.669327,1.090521 0.244516,0.230252 0.21653,0.42975 -0.165266,1.178136 -0.684101,1.340948 -0.618506,1.579569 0.434215,1.579569 0.71536,0 1.016434,0.134219 1.507769,0.672162 0.555654,0.608364 0.668652,0.647226 1.190507,0.409454 0.477493,-0.21756 0.675123,-0.198142 1.149976,0.112994 0.315366,0.206636 0.54254,0.528745 0.504828,0.715798 -0.04398,0.218117 -2.044384,1.128415 -5.577458,2.538055 -3.984347,1.58968 -5.634725,2.35369 -5.963594,2.76071 -0.396515,0.49075 -0.517713,0.52905 -0.947058,0.29927 -0.270795,-0.14493 -0.58528,-0.50792 -0.698855,-0.80664 -0.413088,-1.0865 -1.548966,-0.92179 -1.756333,0.25468 -0.124783,0.70795 -1.311757,1.63739 -2.091085,1.63739 -0.266282,0 -0.668428,-0.20363 -0.893661,-0.45251 z"
       id="path3015"
       inkscape:connector-curvature="0" />
  </g>
</svg>
