<svg height="48" width="48" xmlns="http://www.w3.org/2000/svg">
  <path d="m9.695646 47.668639c0-.11508 1.2395-4.14742 2.754445-8.96076 1.514944-4.81333 2.754444-8.82842 2.754444-8.92242 0-.094-3.42102-2.58376-7.602267-5.53278-4.181248-2.94903-7.60226797-5.444531-7.60226797-5.54556 0-.101028 4.15257897-.183688 9.22795197-.183688 7.114134 0 9.280064-.0631 9.455441-.275445.125115-.151494 1.4798-4.19119 3.010407-8.9770986 2.553527-7.98438 3.031835-9.29676698 3.288228-9.02227898.231386.247715 5.867754 17.88945358 5.867754 18.36596958 0 .591675-.207396.784656-1.204541 1.120808-.648539.218633-.738268.393963-1.105039 2.159263-.09778.47062-.362727.71732-1.118122 1.04112l-.989976.42435.335818.80372c.486137 1.1635.420427 1.57625-.311169 1.95458-.481712.2491-.664654.51792-.716155 1.05234-.05548.5757-.17822.73238-.620061.79153-.732517.0981-.82019.20364-1.19028 1.43336-.316031 1.05009-.315326 1.05366.360868 1.8238.635935.72429.654683.79452.305455 1.14428-.204636.20495-.837144.47194-1.405576.5933-.972072.20755-1.071314.29704-1.669423 1.50533l-.635911 1.28465.553454.58806c.527309.56027.541718.6441.305032 1.77441l-.248425 1.18636-5.603472 4.17722c-5.63124 4.1979-6.196613 4.58071-6.196613 4.19558zm22.617445-5.4589c-6.084712-4.55729-7.295324-5.3794-7.752524-5.26465-.723701.18164-.692705-.20236.06417-.79499.482896-.37811.628357-.70584.716155-1.61357l.110178-1.1391 1.388392-.73418c1.313362-.6945 1.41714-.71534 1.92036-.38562.292581.19171.675379.34856.850663.34856.549879 0 1.459653-1.29401 1.459653-2.07613 0-1.34924 1.423349-1.95219 2.115336-.89608.199459.30441.594319.61162.877465.68268.283146.0711.615372.25038.738279.39848.203117.24474 5.083143 16.2723 5.083143 16.69465 0 .0993-.08113.18058-.180277.18058-.09915 0-3.425102-2.43028-7.390993-5.40063zm-9.616466-6.9462c0-.50403.578974-.82439.903458-.4999.316409.31641-.0075.94753-.486322.94753-.27238 0-.417136-.15534-.417136-.44763zm5.66462-5.28459c-.17461-.66771.156584-1.64008.58686-1.72298.930026-.17919 1.374077 1.11709.617282 1.80198-.54514.49334-1.063362.45934-1.204142-.079zm1.706618-3.0938c-.327576-.36197-.57173-.4251-1.220249-.31554-.783102.13231-.814761.11206-.928857-.59418-.06497-.40213-.150972-.91575-.191125-1.14137-.07397-.41565.103596-.56345 1.194039-.99383.487558-.19243.606636-.38004.609351-.96005.0045-.95138.264151-1.32025 1.142476-1.62274.646384-.222616.720432-.331081.666505-.976282-.04236-.506823.08772-.883798.431097-1.249303.438181-.466423.463024-.599591.228013-1.222209-.236944-.627737-.210711-.755743.258135-1.259527.287038-.308427.635504-.781744.774369-1.051815.176232-.342739.712373-.630724 1.775225-.953556l1.522741-.462519 3.374968.813332c1.85623.447331 3.507428.938066 3.669327 1.090521.244516.230252.21653.42975-.165266 1.178136-.684101 1.340948-.618506 1.579569.434215 1.579569.71536 0 1.016434.134219 1.507769.672162.555654.608364.668652.647226 1.190507.409454.477493-.21756.675123-.198142 1.149976.112994.315366.206636.54254.528745.504828.715798-.04398.218117-2.044384 1.128415-5.577458 2.538055-3.984347 1.58968-5.634725 2.35369-5.963594 2.76071-.396515.49075-.517713.52905-.947058.29927-.270795-.14493-.58528-.50792-.698855-.80664-.413088-1.0865-1.548966-.92179-1.756333.25468-.124783.70795-1.311757 1.63739-2.091085 1.63739-.266282 0-.668428-.20363-.893661-.45251z" fill="#a0a0a0"/>
</svg>
