<svg height="48" width="48" xmlns="http://www.w3.org/2000/svg">
  <path d="m23.36993 43.91677c0-.11354-.69492-1.41741-1.54427-2.89749-.84935-1.48008-1.57688-2.74828-1.61674-2.81823-.20122-.35312.63886-.69034 2.24219-.90004.9756-.1276 2.11581-.30865 2.53381-.40234 2.53646-.56847 3.32499-.61231 3.32499-.18482 0 .0825-.8112 1.45297-1.80266 3.04554-.99147 1.59257-1.94842 3.22593-2.12656 3.6297-.20381.46194-.45122.73412-.66733.73412-.18889 0-.34343-.0929-.34343-.20644zm-4.40302-7.74087c-.38391-.5974-.75938-1.33065-.83437-1.62944l-.13635-.54324 1.30938.16471c.72015.0906 1.9468.16597 2.72589.16751l1.41652.003.14596-.665c.0803-.36574.27951-1.73374.44274-3.03999.16322-1.30624.41914-3.10174.56871-3.98998.14956-.88825.48743-3.15399.75082-5.03499.26339-1.88099.56547-3.78459.6713-4.23021.10582-.44563.19409-1.08687.19615-1.425.006-.94022.50567-3.57517.71879-3.78829.104-.10401.8176-.26333 1.58578-.35406 2.33518-.275818 3.60011-.526815 5.34533-1.060656 1.07821-.329814 1.73388-.445201 1.85298-.326096.10138.101382.98966 1.793632 1.97395 3.760562 1.613021 3.22334 1.768528 3.62545 1.57591 4.07499-.300123.70047-2.90116 5.01505-3.77737 6.26588-.40103.57248-.72914 1.1417-.72914 1.26493 0 .12323-.16881.37683-.37514.56356-.20634.18672-.43239.5206-.50234.74194-.07.22134-.32864.66701-.57485.99037-.24621.32337-.44772.66537-.4478.76-.00008.0946-.43911.89881-.97563 1.78706-.53652.88825-1.23189 2.08368-1.54527 2.65652-1.32698 2.42567-1.28578 2.38741-2.82894 2.62735-.76725.11929-1.77975.30611-2.25.41515-.47025.10903-1.44324.28116-2.16221.3825-.71896.10134-1.61671.27022-1.99499.3753-1.19644.33233-1.40068.24532-2.14581-.91417zm2.78802-2.21333c-.1045-.0334-1.06951-.16912-2.14448-.30166-1.07496-.13255-2.0717-.33362-2.21497-.44683-.14328-.11321-1.67291-2.59983-3.3992-5.52582-1.72628-2.92599-3.59379-6.0383-4.15-6.91625-1.37809-2.17522-1.6714-2.75924-1.51379-3.01424.13151-.21279.75223-.55837 4.7347-2.636 2.91384-1.52014 3.07691-1.40548 1.47776 1.03909-1.31634 2.01223-1.8475 2.91325-1.76565 2.9951.0786.0786 1.5663-1.82956 2.99065-3.83593.57475-.8096 1.41979-1.85156 1.87787-2.31547.82674-.83727.84001-.84247 1.80499-.70674 1.31164.18449 3.56269.33492 5.00961.33477.75223-.00008 1.18631.0779 1.18426.21279-.002.11711-.17692 1.62367-.3892 3.34792-.21228 1.72424-.46675 3.94723-.56549 4.93998-.0987.99275-.2568 2.36074-.35123 3.03999-.0944.67925-.17322 1.44875-.17508 1.71-.004.54377-.28133 2.99784-.66252 5.85975-.16592 1.24576-.35986 2.0269-.52996 2.13458-.2622.16598-.83868.20618-1.21827.085zm-15.22955-18.48177c-.39226-.70537-1.06444-1.83825-1.49374-2.51749-.9252-1.463891-1.74976-3.1324073-1.88526-3.8149193-.0535-.269459-.29632-.580613-.53959-.691453-.43282-.197208-2.60679-3.221311-2.60679-3.626183 0-.112748.06950001-.247962.15449001-.300475.20363-.125855 2.00101999.739117 2.31033999 1.11183.13293.160169.3381.292101.45593.29318.11782.0011.57672.193454 1.01975.427499 5.03744 2.661137 9.18263 4.3880483 11.92444 4.9677953 1.13173.2393 1.44397.566376.855.895636-.15675.0876-1.5675.8294-3.13499 1.64838-1.5675.81898-3.43422 1.80397-4.14827 2.18887-1.85691 1.00095-2.05242.96182-2.91131-.58267zm31.707312-1.99856c-.864702-1.69616-1.570072-3.213059-1.567492-3.370888.003-.1726133.64817-.5859963 1.619546-1.0374053.888171-.412743 1.657595-.885097 1.709829-1.049672.05223-.164576.672169-.581324 1.377633-.926107.705464-.344782 2.32242-1.218168 3.593236-1.940855 2.381165-1.35412 2.849599-1.513954 3.033385-1.035013.09811.255666-6.000452 10.5958903-6.392111 10.8379503-.08992.0556-.241639-.0386-.337152-.20928-.141165-.25224-.195764-.19981-.291765.28019-.142404.71203-.659727 1.54349-.957276 1.53857-.118605-.002-.923131-1.39133-1.787833-3.08749z" fill="#a0a0a0"/>
</svg>
