<?xml version="1.0" encoding="UTF-8" standalone="no"?>
<!-- Created with Inkscape (http://www.inkscape.org/) -->

<svg
   xmlns:dc="http://purl.org/dc/elements/1.1/"
   xmlns:cc="http://creativecommons.org/ns#"
   xmlns:rdf="http://www.w3.org/1999/02/22-rdf-syntax-ns#"
   xmlns:svg="http://www.w3.org/2000/svg"
   xmlns="http://www.w3.org/2000/svg"
   xmlns:sodipodi="http://sodipodi.sourceforge.net/DTD/sodipodi-0.dtd"
   xmlns:inkscape="http://www.inkscape.org/namespaces/inkscape"
   width="48"
   height="48"
   id="svg2988"
   version="1.1"
   inkscape:version="0.48.4 r9939"
   sodipodi:docname="up.svg">
  <defs
     id="defs2990">
    <filter
       id="filter5054"
       inkscape:label="filter1"
       color-interpolation-filters="sRGB" />
  </defs>
  <sodipodi:namedview
     id="base"
     pagecolor="#ffffff"
     bordercolor="#666666"
     borderopacity="1.0"
     inkscape:pageopacity="0.0"
     inkscape:pageshadow="2"
     inkscape:zoom="2.8284271"
     inkscape:cx="-83.410167"
     inkscape:cy="83.099659"
     inkscape:current-layer="layer1"
     showgrid="true"
     inkscape:grid-bbox="true"
     inkscape:document-units="px"
     inkscape:window-width="1912"
     inkscape:window-height="1036"
     inkscape:window-x="0"
     inkscape:window-y="0"
     inkscape:window-maximized="1">
    <inkscape:grid
       type="xygrid"
       id="grid2996"
       empspacing="5"
       visible="true"
       enabled="true"
       snapvisiblegridlinesonly="true" />
  </sodipodi:namedview>
  <metadata
     id="metadata2993">
    <rdf:RDF>
      <cc:Work
         rdf:about="">
        <dc:format>image/svg+xml</dc:format>
        <dc:type
           rdf:resource="http://purl.org/dc/dcmitype/StillImage" />
        <dc:title></dc:title>
      </cc:Work>
    </rdf:RDF>
  </metadata>
  <g
     id="layer1"
     inkscape:label="Layer 1"
     inkscape:groupmode="layer">
    <path
       style="fill:#a0a0a0;fill-opacity:1"
       d="m 23.36993,43.91677 c 0,-0.11354 -0.69492,-1.41741 -1.54427,-2.89749 -0.84935,-1.48008 -1.57688,-2.74828 -1.61674,-2.81823 -0.20122,-0.35312 0.63886,-0.69034 2.24219,-0.90004 0.9756,-0.1276 2.11581,-0.30865 2.53381,-0.40234 2.53646,-0.56847 3.32499,-0.61231 3.32499,-0.18482 0,0.0825 -0.8112,1.45297 -1.80266,3.04554 -0.99147,1.59257 -1.94842,3.22593 -2.12656,3.6297 -0.20381,0.46194 -0.45122,0.73412 -0.66733,0.73412 -0.18889,0 -0.34343,-0.0929 -0.34343,-0.20644 z M 18.96691,36.1759 C 18.583,35.5785 18.20753,34.84525 18.13254,34.54646 l -0.13635,-0.54324 1.30938,0.16471 c 0.72015,0.0906 1.9468,0.16597 2.72589,0.16751 l 1.41652,0.003 0.14596,-0.665 c 0.0803,-0.36574 0.27951,-1.73374 0.44274,-3.03999 0.16322,-1.30624 0.41914,-3.10174 0.56871,-3.98998 0.14956,-0.88825 0.48743,-3.15399 0.75082,-5.03499 0.26339,-1.88099 0.56547,-3.78459 0.6713,-4.23021 0.10582,-0.44563 0.19409,-1.08687 0.19615,-1.425 0.006,-0.94022 0.50567,-3.57517 0.71879,-3.78829 0.104,-0.10401 0.8176,-0.26333 1.58578,-0.35406 2.33518,-0.275818 3.60011,-0.526815 5.34533,-1.060656 1.07821,-0.329814 1.73388,-0.445201 1.85298,-0.326096 0.10138,0.101382 0.98966,1.793632 1.97395,3.760562 1.613021,3.22334 1.768528,3.62545 1.57591,4.07499 -0.300123,0.70047 -2.90116,5.01505 -3.77737,6.26588 -0.40103,0.57248 -0.72914,1.1417 -0.72914,1.26493 0,0.12323 -0.16881,0.37683 -0.37514,0.56356 -0.20634,0.18672 -0.43239,0.5206 -0.50234,0.74194 -0.07,0.22134 -0.32864,0.66701 -0.57485,0.99037 -0.24621,0.32337 -0.44772,0.66537 -0.4478,0.76 -8e-5,0.0946 -0.43911,0.89881 -0.97563,1.78706 -0.53652,0.88825 -1.23189,2.08368 -1.54527,2.65652 -1.32698,2.42567 -1.28578,2.38741 -2.82894,2.62735 -0.76725,0.11929 -1.77975,0.30611 -2.25,0.41515 -0.47025,0.10903 -1.44324,0.28116 -2.16221,0.3825 -0.71896,0.10134 -1.61671,0.27022 -1.99499,0.3753 -1.19644,0.33233 -1.40068,0.24532 -2.14581,-0.91417 z m 2.78802,-2.21333 c -0.1045,-0.0334 -1.06951,-0.16912 -2.14448,-0.30166 -1.07496,-0.13255 -2.0717,-0.33362 -2.21497,-0.44683 -0.14328,-0.11321 -1.67291,-2.59983 -3.3992,-5.52582 -1.72628,-2.92599 -3.59379,-6.0383 -4.15,-6.91625 -1.37809,-2.17522 -1.6714,-2.75924 -1.51379,-3.01424 0.13151,-0.21279 0.75223,-0.55837 4.7347,-2.636 2.91384,-1.52014 3.07691,-1.40548 1.47776,1.03909 -1.31634,2.01223 -1.8475,2.91325 -1.76565,2.9951 0.0786,0.0786 1.5663,-1.82956 2.99065,-3.83593 0.57475,-0.8096 1.41979,-1.85156 1.87787,-2.31547 0.82674,-0.83727 0.84001,-0.84247 1.80499,-0.70674 1.31164,0.18449 3.56269,0.33492 5.00961,0.33477 0.75223,-8e-5 1.18631,0.0779 1.18426,0.21279 -0.002,0.11711 -0.17692,1.62367 -0.3892,3.34792 -0.21228,1.72424 -0.46675,3.94723 -0.56549,4.93998 -0.0987,0.99275 -0.2568,2.36074 -0.35123,3.03999 -0.0944,0.67925 -0.17322,1.44875 -0.17508,1.71 -0.004,0.54377 -0.28133,2.99784 -0.66252,5.85975 -0.16592,1.24576 -0.35986,2.0269 -0.52996,2.13458 -0.2622,0.16598 -0.83868,0.20618 -1.21827,0.085 z M 6.52538,15.4808 C 6.13312,14.77543 5.46094,13.64255 5.03164,12.96331 4.10644,11.499419 3.28188,9.8309027 3.14638,9.1483907 3.09288,8.8789317 2.85006,8.5677777 2.60679,8.4569377 2.17397,8.2597297 0,5.2356267 0,4.8307547 c 0,-0.112748 0.06950001,-0.247962 0.15449001,-0.300475 0.20363,-0.125855 2.00101999,0.739117 2.31033999,1.11183 0.13293,0.160169 0.3381,0.292101 0.45593,0.29318 0.11782,0.0011 0.57672,0.193454 1.01975,0.427499 5.03744,2.661137 9.18263,4.3880483 11.92444,4.9677953 1.13173,0.2393 1.44397,0.566376 0.855,0.895636 -0.15675,0.0876 -1.5675,0.8294 -3.13499,1.64838 -1.5675,0.81898 -3.43422,1.80397 -4.14827,2.18887 C 7.57978,17.06442 7.38427,17.02529 6.52538,15.4808 z M 38.232692,13.48224 C 37.36799,11.78608 36.66262,10.269181 36.6652,10.111352 c 0.003,-0.1726133 0.64817,-0.5859963 1.619546,-1.0374053 0.888171,-0.412743 1.657595,-0.885097 1.709829,-1.049672 0.05223,-0.164576 0.672169,-0.581324 1.377633,-0.926107 0.705464,-0.344782 2.32242,-1.218168 3.593236,-1.940855 2.381165,-1.35412 2.849599,-1.513954 3.033385,-1.035013 0.09811,0.255666 -6.000452,10.5958903 -6.392111,10.8379503 -0.08992,0.0556 -0.241639,-0.0386 -0.337152,-0.20928 -0.141165,-0.25224 -0.195764,-0.19981 -0.291765,0.28019 -0.142404,0.71203 -0.659727,1.54349 -0.957276,1.53857 -0.118605,-0.002 -0.923131,-1.39133 -1.787833,-3.08749 z"
       id="path5675"
       inkscape:connector-curvature="0" />
  </g>
</svg>
