<svg height="48" width="48" xmlns="http://www.w3.org/2000/svg">
  <path d="m30.226104 47.977017c-.08665-.127625-.301279-.649726-.476967-1.160224-.346833-1.007805-1.171907-1.97238-1.687121-1.97238-.475108 0-1.115893.940176-1.115893 1.63727 0 .935212-.338784 1.026494-.648262.174667-.163935-.451224-.652507-.99154-1.185086-1.3106-.845624-.506597-.887626-.587602-.628732-1.212647.247787-.598232.197662-.745657-.469178-1.379946-.633863-.602926-.698224-.770205-.426212-1.107798.176213-.218702.454868-.68222.619229-1.030044.164365-.347823.62247-.735215 1.018011-.860869.477333-.151639.854653-.523969 1.122082-1.107241.596233-1.300409.287213-3.162286-1.02821-6.195115-.966587-2.228553-1.13921-2.893936-1.284441-4.950971-.09227-1.307026-.323004-2.846434-.512725-3.420907-.321339-.973019-.307879-1.087436.19669-1.671993.541129-.626912.749471-2.175061.342604-2.545838-.248446-.226408-.67149.35618-.676705.93191-.0021.236826-.300464.751779-.662937 1.144341-.539813.584627-.630242.863548-.499859 1.541789.08755.45542.225145 1.59194.305766 2.5256.132416 1.533425.09218 1.750345-.416155 2.243447-.4257.412942-.523395.709159-.401156 1.216341.117685.48829-.01905.964993-.503227 1.754444-.753861 1.229159-1.637446 4.782336-1.64245 6.604808-.004 1.434334.497835 2.03694 1.894997 2.2758 1.148634.19637 1.264322.379933.868353 1.37783-.302048.761209-.278156.848908.409437 1.502939.708146.673582.716355.708507.271748 1.156216-.355549.358027-.43116.72055-.336847 1.61502l.121612 1.153366-.69996-.682842c-.384977-.375564-.933949-.682843-1.219938-.682843-.57844 0-1.312747.807671-1.312747 1.443901 0 .68904-.358011.459671-.808642-.518082-.337179-.731597-.561176-.925819-1.067741-.925819-.369381 0-.805268.21366-1.028552.504164-.371898.483862-.393725.486198-.542073.05801-.481138-1.388762-1.223627-1.619667-2.078314-.64633l-.583293.664267-.0013-.651686c-.000764-.358425.121555-1.373052.271665-2.254722.243973-1.432965.214199-1.761484-.280635-3.096491-.351075-.947111-.865572-1.769022-1.406424-2.246738-.834517-.737101-.890029-.75033-2.5839609-.615858-.952117.07558-2.4079185.352202-3.2351122.61471-.8271971.26251-1.6865768.471341-1.9097321.464073-.2231587-.0073-.8496892-.543887-1.39229-1.192489-.9613135-1.149111-.9834632-1.21856-.8659583-2.71516.066323-.844738.3073847-1.865073.5356942-2.267408.3795762-.668913.3827749-1.024661.0373423-4.156487-1.1290796-10.23674-.6844994-14.420765 1.9681927-18.5229093 2.2832401-3.53082 7.3049653-7.017649 12.1701513-8.450328 2.056494-.60558794 4.959597-1.06554994 5.510162-.87301694.361781.126515.398068.529205.28968 3.21474994-.106387 2.635979-.05825 3.201369.340436 3.998297.25539.510498.590924 1.53.745633 2.265561.154706.7355613.387427 1.2776033.51715 1.2045403.450851-.253922.263649-2.8588513-.274532-3.8202033-.429998-.768098-.470256-1.068216-.255555-1.905124.140166-.54637.324068-1.920527.408675-3.053684l.15383-2.06028494 1.885359.155693c5.924101.48921 11.917073 3.30010994 15.518006 7.27845294 1.520493 1.679855 3.265194 4.6958263 3.65784 6.3231213.423708 1.756014.854215 10.305039.681896 13.541044-.199859 3.753144-.199844 3.498113-.000254 6.232505.189446 2.596782.01666 3.009698-1.690273 4.039088l-1.018356.614139-3.666506-.873883-3.666507-.873882-1.390263.72487c-2.093833 1.091708-2.098044 1.100706-1.595278 3.407739.595039 2.73043.793206 5.098256.443178 5.295394-.153591.08651-.512603-.05537-.797807-.315272-1.04412-.951504-1.969768-.287612-2.093515 1.501508-.04408.637199-.151027 1.054123-.237673.926499zm-15.883331-14.828647c3.372338-1.518858 5.455459-3.940894 5.907666-6.868815.158493-1.026181-.314986-1.443488-2.2164-1.953459-2.190904-.587616-8.2740959-.976679-10.1911179-.651793-2.9564798.501045-3.5589545 1.32533-3.5589545 4.869224 0 2.172641.042785 2.36186.7266152 3.213556 1.6004272 1.993294 2.625441 2.446348 5.3051982 2.344877 1.800345-.06817 2.350183-.198373 4.026993-.95359zm24.869716.350258c.639269-.36945 1.492435-1.065835 1.895926-1.547518.672353-.802652.740864-1.06438.820351-3.134023.147922-3.851529-.805353-4.966511-4.486456-5.247503-1.999108-.1526-7.258485.266605-9.199743.733275-1.942182.466892-2.403755.919707-2.215224 2.173184.620432 4.125038 5.349484 7.632245 10.353932 7.678791 1.420317.0132 1.842039-.08453 2.831214-.656206z" fill="#a0a0a0"/>
</svg>
