<svg height="48" width="48" xmlns="http://www.w3.org/2000/svg">
  <path d="m9.1987499 47.248676c0-.08249 1.2201201-4.035362 2.7113901-8.784156 2.10718-6.710103 2.65399-8.703328 2.45382-8.944519-.14166-.170693-3.4315-2.595459-7.3107601-5.38837-3.87926-2.792911-7.05320003-5.172747-7.05320003-5.288523 0-.127468 3.47380003-.211861 8.80612003-.21394 4.8433701-.0018 8.9291201-.08159 9.0794501-.177115.15034-.09552 1.5269-4.087139 3.05904-8.8702583 1.53214-4.7831186 2.84785-8.75871972 2.9238-8.83466992.0759-.07595.18351-.092661.23904-.037138.0555.055525 1.32622 3.98462482 2.82378 8.73133392 1.49756 4.7467103 2.82748 8.7565843 2.95538 8.9108323.17892.215782 2.29552.280449 9.17946.280449 7.01491 0 8.9441.06056 8.93389.28045-.007.154247-3.26319 2.501611-7.2356 5.216364-4.96744 3.394752-7.24191 5.076021-7.28448 5.384635-.0341.246795 1.10177 4.168788 2.52404 8.715537 1.42228 4.546751 2.58596 8.419345 2.58596 8.605765 0 .212238-.12848.289644-.34368.207067-.18902-.07254-3.41403-2.455942-7.16669-5.296459-3.75266-2.840518-6.97645-5.164578-7.16398-5.164578-.18753 0-3.44199 2.382649-7.23215 5.294776-6.6092 5.078116-7.4846301 5.706503-7.4846301 5.372517z" fill="#a0a0a0"/>
</svg>
