<svg height="48" width="48" xmlns="http://www.w3.org/2000/svg">
  <path d="m .11850059 43.787462c-.32412-.390534-.0721-.943865 1.88287001-4.134218.88664-1.446917 2.7917-4.567924 4.23347-6.935569 1.44177-2.367645 2.74823-4.3419 2.90326-4.387233.15503-.04533.50272-.518134.77265-1.050665.7686804-1.516482 1.0154404-1.467892 4.5944404.904695 1.64723 1.091983 3.24865 2.122194 3.5587 2.289356.69427.374308 5.57956 3.394797 7.2061 4.455404l1.19295.777874-3.16601.122137c-3.92459.151398-5.55514.459576-9.29086 1.755986-3.78816 1.314607-6.2862604 2.471098-10.8031704 5.001312-1.45572.815442-2.69262001 1.482619-2.74868001 1.482619-.0561 0-.20714-.126763-.33572-.281698zm45.85022041-.601481c-2.76059-1.710097-8.86011-4.658826-11.18072-5.405163-1.24022-.398868-2.36064-.751151-2.48983-.782853-.39139-.09605-.27136-.502464.55117-1.866234.62714-1.039823.793-1.501615.82043-2.284326.0189-.539566.12046-1.216149.22566-1.503512.10521-.287365.29661-.903002.42534-1.368083.12873-.46508.34147-1.183841.47275-1.597246.13129-.413405.38254-1.301286.55833-1.973069.66132-2.527193.83157-2.599785 1.88277-.802785.40675.695332.86826 1.393723 1.02558 1.551978.15731.158257.63502.878891 1.06157 1.601409 1.38179 2.340582 5.80954 9.70633 7.28113 12.11246 1.47259 2.407766 1.64974 2.889253 1.13561 3.086543-.3696.14183-.13391.244254-1.76979-.769119zm-15.0329-6.831515c-.25838-.09271-1.14856-.284485-1.97818-.426157-1.04401-.17828-1.76077-.425542-2.3281-.803127-.45083-.300049-1.04031-.665918-1.30993-.813042-.26963-.147123-.82018-.506503-1.22344-.798623-.40326-.292119-.82076-.531125-.92778-.531125-.10702 0-.36915-.15846-.58252-.352135-.21336-.193675-.81073-.582602-1.32749-.864287-.51675-.281685-1.06639-.617176-1.22142-.745538-.15503-.12836-.83151-.555308-1.50329-.948768-.67178-.393462-1.64423-.985717-2.16098-1.316124-.51676-.330406-1.89086-1.140636-3.05356-1.80051-1.1627-.659875-2.114-1.296298-2.114-1.414277 0-.117978.42062-.858835.93471-1.646347.5141-.787512 1.20458-1.961063 1.5344-2.60789.32983-.646828.73268-1.331808.89521-1.522181.35855-.419948 1.18178-1.811153 1.70869-2.887557.21291-.434962.46721-.84034.5651-.90084.0979-.0605.48318-.655736.85619-1.322745.37301-.66701.80446-1.283399.95876-1.369753.16071-.08994.65559-.05696 1.15851.07721 1.99444.532068 3.12032.850716 6.60924 1.870554 2.01535.5891 3.94579 1.138355 4.28987 1.220566.76179.182012.71566.136692 1.53023 1.50335.36457.611651 1.2417 2.064557 1.94918 3.228679l1.28634 2.116586-.48963 1.693489c-1.68122 5.814956-2.54596 8.971577-2.72312 9.940389-.18906 1.03386-.46995 1.638249-.74529 1.603609-.0649-.0082-.32933-.09069-.5877-.183405zm-.75165-20.841017c-1.30105-.412092-6.57785-1.947709-7.22719-2.103204-.74796-.179113-1.22882-.460754-1.22882-.71973 0-.07664.35882-.383387.79737-.681658.43856-.298272 1.62939-1.12422 2.6463-1.83544 1.54562-1.0809967 1.88768-1.2505397 2.08517-1.0335127.56461.620473 3.86943 6.2103377 3.76835 6.3738877-.12704.20555-.19122.205524-.84118-.000339zm-10.24117-2.725531c-.10335-.03689-.42045-.118364-.70466-.181049-.28422-.06269-.51676-.20365-.51676-.313256 0-.340604 4.77678-8.2275427 5.05045-8.3387937.14228-.05784.37651-.0074.52049.1121.31951.26517 2.70348 4.195094 2.68133 4.420118-.0217.220514-6.02843 4.2000277-6.48015 4.2931597-.19953.04114-.44735.04461-.5507.0077z" fill="#a0a0a0"/>
</svg>
