<?xml version="1.0" encoding="UTF-8" standalone="no"?>
<!-- Created with Inkscape (http://www.inkscape.org/) -->

<svg
   xmlns:dc="http://purl.org/dc/elements/1.1/"
   xmlns:cc="http://creativecommons.org/ns#"
   xmlns:rdf="http://www.w3.org/1999/02/22-rdf-syntax-ns#"
   xmlns:svg="http://www.w3.org/2000/svg"
   xmlns="http://www.w3.org/2000/svg"
   xmlns:sodipodi="http://sodipodi.sourceforge.net/DTD/sodipodi-0.dtd"
   xmlns:inkscape="http://www.inkscape.org/namespaces/inkscape"
   width="48px"
   height="48px"
   id="svg2985"
   version="1.1"
   inkscape:version="0.48.4 r9939"
   sodipodi:docname="ed1.svg">
  <defs
     id="defs2987" />
  <sodipodi:namedview
     id="base"
     pagecolor="#ffffff"
     bordercolor="#666666"
     borderopacity="1.0"
     inkscape:pageopacity="0.0"
     inkscape:pageshadow="2"
     inkscape:zoom="7"
     inkscape:cx="-3.1821387"
     inkscape:cy="25.748371"
     inkscape:current-layer="layer1"
     showgrid="true"
     inkscape:grid-bbox="true"
     inkscape:document-units="px"
     inkscape:window-width="1912"
     inkscape:window-height="1022"
     inkscape:window-x="0"
     inkscape:window-y="0"
     inkscape:window-maximized="1" />
  <metadata
     id="metadata2990">
    <rdf:RDF>
      <cc:Work
         rdf:about="">
        <dc:format>image/svg+xml</dc:format>
        <dc:type
           rdf:resource="http://purl.org/dc/dcmitype/StillImage" />
        <dc:title></dc:title>
      </cc:Work>
    </rdf:RDF>
  </metadata>
  <g
     id="layer1"
     inkscape:label="Layer 1"
     inkscape:groupmode="layer">
    <path
       style="fill:#a0a0a0;fill-opacity:1;stroke:#a0a0a0;stroke-opacity:1;stroke-width:0.50000000000000000;stroke-miterlimit:4;stroke-dasharray:none"
       d="M 21.201388,47.259562 C 9.1646662,45.95733 0.50137521,37.137197 0.02138521,25.69611 -0.35845779,16.642143 4.3452712,8.1982715 12.259679,3.7266125 c 6.279494,-3.54792697 13.981712,-4.03959797 20.791474,-1.327224 6.715199,2.674707 12.13248,8.6733815 14.091928,15.6042965 0.734498,2.598051 0.862637,3.613674 0.856728,6.79049 -0.0047,2.521798 -0.05287,3.189995 -0.318781,4.420756 -0.911748,4.220047 -2.764257,7.795138 -5.542293,10.69588 -3.95966,4.134562 -8.968949,6.574623 -14.991957,7.302691 -1.124811,0.135968 -4.847757,0.16481 -5.94539,0.04606 z m 4.652348,-2.357433 c 0.115749,-0.139471 0.149883,-2.353025 0.123422,-8.004194 l -0.03658,-7.811407 -2.334231,-0.04485 c -2.152945,-0.04136 -4.394444,-0.276665 -5.936885,-0.623229 -0.344395,-0.07738 -0.677346,-0.109066 -0.73989,-0.07041 -0.06255,0.03866 -0.113717,3.569446 -0.113717,7.846205 l 0,7.775922 0.389039,0.149036 c 0.564613,0.216294 2.86774,0.683781 4.044357,0.820918 1.752707,0.204283 4.421684,0.182261 4.604478,-0.038 z m 4.330906,-0.599193 c 1.372827,-0.343834 3.779412,-1.219911 4.137955,-1.506356 0.137604,-0.109934 0.176836,-1.863624 0.176836,-7.904724 0,-8.894986 0.180738,-8.000534 -1.501048,-7.428521 -0.541603,0.184212 -1.873715,0.53894 -2.960252,0.788286 -1.086535,0.249345 -2.166502,0.498883 -2.399925,0.554527 l -0.424405,0.101172 -0.03675,7.775493 c -0.02021,4.276521 -0.0032,7.863125 0.03779,7.970231 0.09511,0.248457 1.011017,0.140481 2.969793,-0.350108 z M 15.649988,35.825267 c 0.02294,-4.773285 -0.01454,-7.670357 -0.100312,-7.756136 -0.07531,-0.07531 -0.855612,-0.35454 -1.73401,-0.620516 -0.878398,-0.265976 -2.446253,-0.829117 -3.484122,-1.251427 -1.0378678,-0.422307 -1.9451358,-0.731924 -2.0161488,-0.688035 -0.07487,0.04627 -0.129115,2.865227 -0.129115,6.709617 l 0,6.629819 0.359217,0.426906 c 0.478719,0.568925 2.1977518,1.852541 3.5577028,2.656566 1.249049,0.738458 3.15686,1.619206 3.36871,1.555178 0.09144,-0.02763 0.154417,-2.737318 0.178078,-7.661972 z m 22.739831,4.451531 c 0.861213,-0.688249 2.540451,-2.363117 3.229486,-3.221079 l 0.377962,-0.470627 0,-6.284497 c 0,-3.456474 -0.0547,-6.284496 -0.121546,-6.284496 -0.06685,0 -0.623882,0.232306 -1.23785,0.516236 -0.613967,0.283932 -1.943894,0.848199 -2.955395,1.253928 l -1.839091,0.737689 -0.03677,7.552491 c -0.02022,4.153871 -0.0053,7.634664 0.03314,7.735097 0.08194,0.214032 1.215423,-0.46815 2.55006,-1.534742 z m -31.3352878,-9.185493 0,-6.364308 -0.968286,-0.487619 c -0.532557,-0.268192 -1.299288,-0.682788 -1.703847,-0.921325 -0.404561,-0.238536 -0.79896,-0.433703 -0.876444,-0.433703 -0.09143,0 -0.126488,1.576576 -0.09988,4.491627 l 0.04101,4.491626 0.656849,1.367611 c 0.899965,1.873802 2.47559,4.220398 2.833791,4.220398 0.06425,0 0.116809,-2.863938 0.116809,-6.364307 z m 36.9587638,2.014149 c 0.629736,-1.38294 1.152338,-3.0391 1.4676,-4.650921 0.282138,-1.442466 0.368343,-5.876374 0.11911,-6.126246 -0.100774,-0.101033 -0.485273,0.03113 -1.237851,0.42548 l -1.09167,0.572037 0,5.438015 c 0,2.990908 0.05481,5.438016 0.121782,5.438016 0.06698,0 0.346443,-0.493372 0.621029,-1.096381 z M 27.419929,27.606062 c 3.983045,-0.609227 9.300233,-2.463721 14.966376,-5.219879 2.355157,-1.145606 3.006207,-1.520844 3.006207,-1.732651 0,-0.373596 -0.518499,-2.367725 -0.707427,-2.720742 -0.149079,-0.278556 -0.171302,-0.271201 -0.620893,0.205506 -0.983455,1.042766 -2.747149,1.562029 -4.969732,1.463181 -1.160388,-0.05161 -1.575173,-0.133958 -2.264673,-0.449622 -1.710027,-0.782876 -2.313487,-1.89277 -1.634526,-3.006243 1.092588,-1.791804 4.620956,-2.385836 7.430537,-1.250995 0.463744,0.187315 0.866614,0.317127 0.895265,0.288476 0.161421,-0.161421 -1.455914,-2.784965 -2.556334,-4.146735 l -0.714487,-0.884179 -0.930212,8.49e-4 c -1.083942,9.72e-4 -3.376825,0.326522 -4.602617,0.653493 -1.337309,0.356717 -3.310795,1.372787 -4.343028,2.236049 -0.518102,0.433293 -0.980937,0.787806 -1.028521,0.787806 -0.254637,0 0.643917,-1.318774 1.413139,-2.074015 1.551143,-1.522943 4.041262,-2.5059515 6.817371,-2.6912475 0.719722,-0.04804 1.308584,-0.135893 1.308584,-0.195231 0,-0.181569 -1.703295,-1.55069 -2.900104,-2.331128 -2.150197,-1.402138 -4.33247,-2.358087 -6.719758,-2.943603 -5.145695,-1.262054 -10.374677,-0.652609 -15.136757,1.76421 -1.52269,0.772784 -4.6490408,2.951791 -4.7702678,3.324786 -0.03584,0.110271 0.566599,0.181093 1.9700918,0.231604 3.351109,0.120606 5.580646,0.909215 7.235906,2.5594075 1.401437,1.397145 1.727542,2.396713 0.389417,1.193621 -1.953185,-1.756081 -5.539452,-2.7429585 -9.5596698,-2.630651 l -1.551101,0.04333 -1.136849,1.502702 c -1.132781,1.497328 -2.342688,3.563137 -2.181355,3.724471 0.04669,0.04669 0.479098,-0.101552 0.960917,-0.329417 1.881282,-0.889706 4.379911,-0.891941 6.2014968,-0.0055 1.12797,0.548875 1.668112,1.218888 1.64981,2.046492 -0.02405,1.087564 -0.929536,1.906526 -2.655608,2.401852 -1.0803388,0.31002 -3.6463628,0.233881 -4.6876098,-0.139092 -0.906434,-0.324685 -1.790762,-0.933876 -2.044854,-1.408653 -0.109554,-0.204705 -0.267227,-0.34993 -0.350385,-0.322724 -0.15563,0.05092 -0.730964,1.890414 -0.878038,2.80732 -0.08016,0.499779 -0.05843,0.531643 0.688323,1.009339 1.503626,0.961859 4.166822,2.367205 6.050933,3.193026 6.4459248,2.825301 12.5880528,3.866583 17.9604328,3.044851 z"
       id="path3004"
       inkscape:connector-curvature="0" />
  </g>
</svg>
