<?xml version="1.0" encoding="UTF-8" standalone="no"?>
<!-- Created with Inkscape (http://www.inkscape.org/) -->

<svg
   xmlns:dc="http://purl.org/dc/elements/1.1/"
   xmlns:cc="http://creativecommons.org/ns#"
   xmlns:rdf="http://www.w3.org/1999/02/22-rdf-syntax-ns#"
   xmlns:svg="http://www.w3.org/2000/svg"
   xmlns="http://www.w3.org/2000/svg"
   xmlns:sodipodi="http://sodipodi.sourceforge.net/DTD/sodipodi-0.dtd"
   xmlns:inkscape="http://www.inkscape.org/namespaces/inkscape"
   width="48px"
   height="48px"
   id="svg3793"
   version="1.1"
   inkscape:version="0.48.4 r9939"
   sodipodi:docname="New document 6">
  <defs
     id="defs3795" />
  <sodipodi:namedview
     id="base"
     pagecolor="#ffffff"
     bordercolor="#666666"
     borderopacity="1.0"
     inkscape:pageopacity="0.0"
     inkscape:pageshadow="2"
     inkscape:zoom="3.5"
     inkscape:cx="19.203273"
     inkscape:cy="65.140731"
     inkscape:current-layer="layer1"
     showgrid="true"
     inkscape:grid-bbox="true"
     inkscape:document-units="px"
     inkscape:window-width="1912"
     inkscape:window-height="1022"
     inkscape:window-x="0"
     inkscape:window-y="0"
     inkscape:window-maximized="1" />
  <metadata
     id="metadata3798">
    <rdf:RDF>
      <cc:Work
         rdf:about="">
        <dc:format>image/svg+xml</dc:format>
        <dc:type
           rdf:resource="http://purl.org/dc/dcmitype/StillImage" />
        <dc:title></dc:title>
      </cc:Work>
    </rdf:RDF>
  </metadata>
  <g
     id="layer1"
     inkscape:label="Layer 1"
     inkscape:groupmode="layer">
    <path
       style="fill:#a0a0a0;fill-opacity:1;stroke:#a0a0a0;stroke-opacity:1;stroke-width:0.50000000000000000;stroke-miterlimit:4;stroke-dasharray:none;stroke-linejoin:miter"
       d="m 21.478197,47.254647 c -7.41704,-0.73642 -13.9815603,-4.4821 -17.7362803,-10.12022 -2.85206997,-4.28269 -4.10327997,-9.20137 -3.65193997,-14.35638 0.29685,-3.39056 0.98916997,-5.84985 2.50222997,-8.88857 C 6.1931667,6.6575973 13.132117,1.7837973 21.236517,0.79401731 c 1.95406,-0.23865 5.57173,-0.10323 7.49035,0.28036999 3.64967,0.7297 7.19586,2.35197 10.08242,4.61239 1.29444,1.01365 3.534,3.27469 4.48129,4.5242597 2.10815,2.7809 3.66434,6.27502 4.3901,9.85715 0.28176,1.39067 0.32394,2.01419 0.31895,4.71512 -0.005,2.67125 -0.0502,3.31688 -0.31923,4.55396 -0.61149,2.81177 -1.73622,5.48244 -3.30346,7.84405 -1.18996,1.79313 -4.11308,4.70937 -5.92134,5.90741 -3.39534,2.24955 -7.3281,3.65653 -11.48954,4.1105 -1.27289,0.13885 -4.33596,0.16979 -5.48786,0.0554 z m 6.57874,-2.51386 c 9.69366,-1.65014 16.47421,-8.39628 17.61916,-17.52974 0.21586,-1.72194 0.11018,-4.9453 -0.21642,-6.60135 -1.52293,-7.72211 -7.09525,-14.0976697 -14.46586,-16.5510897 -2.61488,-0.87041 -3.78268,-1.04779 -6.89827,-1.04782 -2.37637,-1e-5 -3.05763,0.0493 -4.2535,0.30808 -2.08258,0.45062 -3.45823,0.92748 -5.36703,1.86044 -2.25317,1.10128 -3.91243,2.29626 -5.8080103,4.18286 -6.86169,6.8292197 -8.37421997,17.5115497 -3.61932,25.5617597 3.24937,5.5013 9.1713303,9.1422 16.2890303,10.0147 1.44204,0.17677 5.16316,0.0672 6.72022,-0.19784 z m -2.27478,-6.32284 c -0.12886,-0.20849 1.03658,-1.66686 1.39368,-1.74398 0.17336,-0.0374 1.2065,-0.20307 2.29588,-0.36806 1.08939,-0.165 2.03291,-0.34978 2.09673,-0.41064 0.0638,-0.0609 -0.68408,-1.34447 -1.66199,-2.85248 -0.97791,-1.508 -1.77819,-2.83973 -1.7784,-2.95939 -1.4e-4,-0.11966 0.18141,-0.43532 0.4036,-0.70147 l 0.40399,-0.48391 2.49447,3.74006 c 1.94337,2.91377 2.4558,3.77585 2.31947,3.9021 -0.0963,0.0891 -1.70296,0.52428 -3.57048,0.967 -1.86751,0.44272 -3.60189,0.85937 -3.85417,0.92589 -0.27905,0.0736 -0.49162,0.0677 -0.54278,-0.0151 z m -17.0370103,-9.9335 c -2.03712,-0.48333 -3.26344,-1.57898 -3.04867,-2.72382 0.47213,-2.51667 6.5128203,-3.3543 8.8649903,-1.22926 1.37805,1.24499 0.76215,2.90726 -1.37661,3.7154 -1.03798,0.3922 -3.2820603,0.51234 -4.4397103,0.23768 z m 28.6748203,-0.78789 c -2.61324,-0.86137 -3.27081,-2.65843 -1.47419,-4.02877 1.98752,-1.51597 6.27369,-1.29582 7.9921,0.4105 0.53967,0.53587 0.60128,0.6661 0.60128,1.27093 0,0.60483 -0.0616,0.73506 -0.60128,1.27094 -0.9162,0.90975 -1.92226,1.2364 -3.99676,1.29766 -1.38899,0.041 -1.84749,8.5e-4 -2.52115,-0.22126 z m -20.69789,-7.07964 c -1.35731,-0.32403 -2.80796,-1.55384 -3.13995,-2.66195 -0.39486,-1.3179 -0.0981,-3.04686 0.69168,-4.02961 0.54168,-0.67406 0.42898,-0.8086 -0.68005,-0.81185 -1.03077,-0.003 -2.41237,0.48636 -3.6155903,1.28069 -0.87565,0.57808 -1.027,0.63711 -1.0644,0.41519 -0.0756,-0.44857 0.81829,-1.99601 1.6108003,-2.78852 3.10408,-3.1040797 8.81269,-1.73941 10.98409,2.6258 0.8245,1.65752 0.5473,3.22175 -0.83395,4.70589 -1.12398,1.2077 -2.43429,1.62684 -3.95263,1.26436 z m 13.45703,-0.19031 c -0.74809,-0.36085 -1.86571,-1.45251 -2.25219,-2.19989 -0.12707,-0.24572 -0.29062,-0.76097 -0.36345,-1.145 -0.53169,-2.80359 2.9307,-6.37453 6.53447,-6.73934 1.81828,-0.18407 3.59538,0.43198 4.84189,1.67849 0.79251,0.79251 1.6864,2.33995 1.6108,2.78852 -0.0373,0.22124 -0.19727,0.15725 -1.10469,-0.44185 -1.2068,-0.79676 -2.52389,-1.25719 -3.58723,-1.25403 -1.09667,0.003 -1.20861,0.13928 -0.66812,0.81185 0.57138,0.71101 0.85987,1.66459 0.85987,2.84224 0,1.14756 -0.33767,1.89794 -1.22012,2.71135 -0.85345,0.78668 -1.70104,1.14009 -2.92981,1.2216 -0.86715,0.0575 -1.11648,0.0178 -1.72142,-0.27394 z"
       id="path3812"
       inkscape:connector-curvature="0" />
  </g>
</svg>
