<svg height="48" width="48" xmlns="http://www.w3.org/2000/svg">
  <g fill="#a0a0a0" transform="scale(1.500182 1.5)">
    <path d="m16 8c-4.422 0-8 3.582-8 8 0 4.418 3.578 8 8 8 4.414 0 8-3.582 8-8 0-4.418-3.586-8-8-8z"/>
    <path d="m18 2c0 1.105-.898 2-2 2-1.109 0-2-.895-2-2 0-1.105.891-2 2-2 1.102 0 2 .895 2 2z"/>
    <circle cx="6" cy="6" r="2"/>
    <path d="m2 13.998c1.102 0 2 .895 2 2 0 1.107-.898 2-2 2-1.109 0-2-.893-2-2 0-1.105.891-2 2-2z"/>
    <circle cx="6" cy="26" r="2"/>
    <path d="m14 30c0-1.109.891-2 2-2 1.109 0 2 .891 2 2 0 1.105-.891 2-2 2-1.109 0-2-.895-2-2z"/>
    <path d="m24.594 27.414c-.781-.781-.781-2.047 0-2.828.781-.781 2.047-.781 2.828 0 .789.781.789 2.047 0 2.828-.781.781-2.047.781-2.828 0z"/>
    <path d="m29.996 17.998c-1.098 0-1.996-.894-1.996-1.998 0-1.109.898-2 2.008-2 1.098 0 2 .893 1.988 1.998.012 1.107-.891 2.002-2 2z"/>
    <path d="m27.422 7.416c-.781.779-2.047.779-2.828 0-.781-.785-.781-2.047 0-2.83.781-.779 2.047-.781 2.828.002.789.781.789 2.049 0 2.828z"/>
  </g>
</svg>
