<svg height="48" viewBox="0 0 48 48" width="48" xmlns="http://www.w3.org/2000/svg">
  <path d="m10 0c-2.22 0-4 1.78-4 4v40c0 2.22 1.78 4 4 4h28c2.22 0 4-1.78 4-4v-40c0-2.22-1.78-4-4-4h-8a6 6 0 0 1 -6 6 6 6 0 0 1 -6-6zm11.38 12h5.25l.32 1.99c1.22.3 2.39.79 3.46 1.46l1.66-1.18 3.68 3.7-1.16 1.62c.64 1.09 1.14 2.24 1.42 3.48l1.99.31v5.25l-1.99.32c-.29 1.22-.78 2.39-1.45 3.47l1.18 1.65-3.68 3.68-1.65-1.16c-1.09.64-2.24 1.13-3.48 1.42l-.31 1.99h-5.25l-.32-1.99c-1.22-.3-2.38-.79-3.46-1.46l-1.66 1.19-3.67-3.7 1.19-1.63c-.67-1.09-1.16-2.24-1.46-3.48l-1.99-.31v-5.25l1.99-.33c.3-1.21.8-2.37 1.47-3.45l-1.19-1.66 3.69-3.68 1.63 1.17c1.09-.64 2.24-1.13 3.48-1.43zm2.62 4.09c-5.46 0-9.91 4.45-9.91 9.91s4.45 9.91 9.91 9.91 9.91-4.45 9.91-9.91-4.45-9.91-9.91-9.91zm0 2.26c4.21 0 7.64 3.43 7.64 7.64 0 2.84-1.57 5.31-3.85 6.62v-3.25l1.56-1.52v-2.59h-1.52v1.93l-1.56 1.52v4.59c-.48.15-.99.19-1.52.3v-7.74c1.32-.35 2.29-1.52 2.29-2.94 0-1.67-1.37-3.04-3.04-3.04s-3.05 1.37-3.05 3.04c0 1.42.98 2.62 2.3 2.94v7.74c-.53-.04-1.04-.15-1.52-.3v-4.59l-1.56-1.52v-1.93h-1.52v2.59l1.56 1.52v3.25c-2.29-1.31-3.86-3.78-3.86-6.62 0-4.21 3.43-7.64 7.65-7.64zm0 3.04c.83 0 1.51.68 1.51 1.52 0 .83-.68 1.52-1.51 1.52s-1.52-.69-1.52-1.52c0-.84.69-1.52 1.52-1.52z" fill="#a0a0a0"/>
</svg>
