<svg height="48" viewBox="0 0 48 48" width="48" xmlns="http://www.w3.org/2000/svg">
  <path d="m10 0c-2.22 0-4 1.78-4 4v40c0 2.22 1.78 4 4 4h28c2.22 0 4-1.78 4-4v-40c0-2.22-1.78-4-4-4h-8c0 3.314-2.69 6-6 6s-6-2.686-6-6zm14 13a13 13 0 0 1 13 13 13 13 0 0 1 -13 13 13 13 0 0 1 -13-13 13 13 0 0 1 13-13zm0 2c-.33 0-.67 0-1 .1v4.15c-1.15.42-2 1.53-2 2.81 0 1.65 1.37 3 3 3 1.65 0 3-1.35 3-3 0-1.28-.84-2.39-2-2.81v-4.2c-.33-.03-.67-.05-1-.05zm-4 .75c-.7.28-1.37.63-2 1.04v11.21c0 1.33 2 1.33 2 0zm8 .02v12.23c0 1.33 2 1.33 2 0v-11.21c-.63-.41-1.3-.75-2-1.02zm-12 2.67c-.83.88-1.5 1.88-2 2.98v7.56c0 .27.1.52.29.71l3.71 3.72v1.8c.63.41 1.3.75 2 1.02v-3.09c0-.18 0-.35-.1-.51s-.18-.3-.32-.4l-3.58-3.63zm16 .02v10.14l-3.61 3.59c-.14.11-.24.25-.31.41-.1.16-.11.33-.1.51v3.14c.7-.27 1.37-.61 2-1.02v-1.86l3.71-3.69c.19-.18.3-.42.31-.67v-7.56c-.5-1.1-1.17-2.11-2-2.99zm-8 2.54c.55 0 1.01.45 1.01 1.01 0 .55-.46 1.01-1.01 1.01-.56 0-1.01-.46-1.01-1.01 0-.56.45-1.01 1.01-1.01zm0 6.01c-1.63 0-3 1.37-3 3 0 1.29.85 2.39 2 2.81v4.13h1 1v-4.13c1.16-.41 2-1.51 2-2.81 0-1.63-1.35-3-3-3zm0 1.99c.55 0 1.01.45 1.01 1.01 0 .51-.4.93-.9.99h-.13-.1c-.5-.1-.89-.48-.89-.99 0-.56.45-1.01 1.01-1.01z" fill="#a0a0a0"/>
</svg>
