<svg height="48" viewBox="0 0 48 48" width="48" xmlns="http://www.w3.org/2000/svg">
  <path d="m9 0c-2.216 0-4 1.784-4 4v40c0 2.22 1.784 4 4 4h3v-4l3-3h19v7h3c2.22 0 4-1.78 4-4v-40c0-2.216-1.78-4-4-4zm27.99 3c.55 0 1 .448 1 1s-.45 1-1 1-1-.448-1-1 .45-1 1-1zm-27.994.016c.552 0 1 .448 1 1s-.448 1-1 1-1-.448-1-1 .448-1 1-1zm.004 9.984h28v18h-28zm2 2v2h24v-2zm0 4v2h24v-2zm0 4v2h24v-2zm0 4v2h24v-2zm-2 16c.55 0 1 .45 1 1s-.45 1-1 1-1-.45-1-1 .45-1 1-1zm7 0-2 2v3h18v-5zm21 0c.55 0 1 .45 1 1s-.45 1-1 1-1-.45-1-1 .45-1 1-1z" fill="#a0a0a0"/>
</svg>
