<svg height="48" viewBox="0 0 48 48" width="48" xmlns="http://www.w3.org/2000/svg">
  <path d="m9 0c-2.216 0-4 1.784-4 4v40c0 2.22 1.784 4 4 4h6v-3l3-3h13v6h6c2.22 0 4-1.78 4-4v-40c0-2.216-1.78-4-4-4zm1 3c1.1 0 2 .895 2 2s-.9 2-2 2c-1.105 0-2-.895-2-2s.895-2 2-2zm26 0c1.1 0 2 .895 2 2s-.9 2-2 2-2-.895-2-2 .9-2 2-2zm-25 12h24v18h-24zm2 2v2h2v-2zm3 0v2h2v-2zm3 0v2h2v-2zm6 0v2h2v-2zm6 0v2h2v-2zm-18 3v2h2v-2zm3 0v2h2v-2zm3 0v2h2v-2zm3 0v2h2v-2zm6 0v2h2v-2zm3 0v2h2v-2zm-18 3v2h2v-2zm3 0v2h2v-2zm3 0v2h2v-2zm6 0v2h2v-2zm3 0v2h2v-2zm-15 3v2h2v-2zm6 0v2h2v-2zm3 0v2h2v-2zm3 0v2h2v-2zm6 0v2h2v-2zm-18 3v2h2v-2zm3 0v2h2v-2zm6 0v2h2v-2zm6 0v2h2v-2zm-18 12c1.1 0 2 .9 2 2s-.9 2-2 2c-1.105 0-2-.9-2-2s.895-2 2-2zm26 0c1.1 0 2 .9 2 2s-.9 2-2 2-2-.9-2-2 .9-2 2-2zm-17 3-2 2v2h12v-4z" fill="#a0a0a0"/>
</svg>
