<svg height="48" viewBox="0 0 48 48" width="48" xmlns="http://www.w3.org/2000/svg">
  <path d="m4 0c-2.22 0-4 1.78-4 4v40c0 2.22 1.78 4 4 4h40c2.22 0 4-1.78 4-4v-40c0-2.22-1.78-4-4-4zm1 3c1.105 0 2 .895 2 2s-.895 2-2 2-2-.895-2-2 .895-2 2-2zm38 0c1.1 0 2 .895 2 2s-.9 2-2 2-2-.895-2-2 .9-2 2-2zm-19 2.969c9.67 0 15 8.361 15 18.031h-2c0-7.73-5.27-12-13-12s-13 4.27-13 12h-2c0-9.67 5.33-18.031 15-18.031zm0 8.021c6.08 0 11.01 3.92 11 10 0 6.08-4.92 11.01-11 11-6.08 0-11.01-4.92-11-11 0-6.08 4.92-10.01 11-10zm0 1.01c-4.96 0-8.98 4.03-8.99 8.99 0 4.97 4.02 9 8.99 9.01 4.97 0 9.01-4.04 9-9.01s-4.03-8.99-9-8.99zm-.36 2.8h.1c1.33 0 1.33 2 0 2-2.25.12-3.96 1.97-3.96 4.22 0 1.33-2 1.33-2 0 0-3.31 2.55-6.07 5.85-6.25zm-16.778 21.2h3v5h-3zm7.888 0h3v5h-3zm7.75 0h3v5h-3zm7.62 0h3v5h-3zm7.76 0h3v5h-3z" fill="#a0a0a0"/>
</svg>
