<svg height="48" viewBox="0 0 48 48" width="48" xmlns="http://www.w3.org/2000/svg">
  <path d="m10 0c-2.216 0-4 1.784-4 4v40c0 2.22 1.784 4 4 4h28c2.22 0 4-1.78 4-4v-40c0-2.216-1.78-4-4-4zm14 7c2.34 0 4.69.174 7.03.504l.32.539c.86 1.451.85 2.597 0 3.907l-.36.55c-1.68.24-3.33.39-4.99.46v14.18c-.6.36-1.28.58-2.01.58-.72 0-1.4-.22-1.99-.58v-14.18c-.33 0-.67 0-1-.1-1.35-.1-2.7-.21-4.04-.4l-.35-.55c-.83-1.31-.84-2.455 0-3.906l.31-.494c2.36-.334 4.72-.51 7.08-.51zm-8.92.811c-.68 1.462-.7 2.989-.04 4.369-.34-.06-.69-.11-1.04-.18-1.09-.22-2-.89-2-2 0-1.108.91-1.782 2-2 .36-.072.72-.126 1.08-.189zm17.84 0c.36.068.72.117 1.08.189 1.09.218 2 .892 2 2 0 1.11-.91 1.78-2 2-.36.1-.72.12-1.08.19.68-1.39.66-2.917 0-4.378zm-19.92 8.179h2 2v2h-2v3h2v2h-2v3h2v2h-2v2.99h2v2h-2-2v-2-2.98-2-3-2-3-2zm6 0h2v12.02c.87.58 1.9.91 2.99.91 1.1 0 2.14-.33 3.01-.91v-12.01h2v16.98h-2-6-2zm12 0h4v2 3 2 3 2 2.99 2h-2-2v-2h2v-2.98h-2v-2h2v-3h-2v-2h2v-3h-2zm-16.58 19.01h9.5 9.51c.67 0 .64.94 0 1.35l-8.35 5.31c-.31.19-.73.31-1.16.31-.42 0-.84-.12-1.16-.31l-8.34-5.31c-.65-.41-.69-1.35 0-1.35z" fill="#a0a0a0"/>
</svg>
