<svg height="48" width="48" xmlns="http://www.w3.org/2000/svg">
  <path d="m24-.009766c-13.25-.0001-23.990134 10.739766-23.990234 23.989766 0 13.25 10.740234 23.99 23.990234 23.99s23.99-10.74 23.99-23.99-10.74-23.989766-23.99-23.989766zm0 5.001766c10.5 0 19.01 8.508 19.01 19.008s-8.51 19.01-19.01 19.01-19.008-8.51-19.008-19.01c.001-10.5 8.508-19.007 19.008-19.008zm0 4.008-2 1.88v8.54a5.008 5.008 0 0 0 -3 4.59 5.008 5.008 0 0 0 5.01 5.01 5.008 5.008 0 0 0 4.35-2.54h7.64l1.78-2.5-1.78-2.5h-7.67a5.008 5.008 0 0 0 -2.33-2.06v-8.54zm-15 13v4h5v-4zm15 0a2 2 0 0 1 2 2 2 2 0 0 1 -2 2 2 2 0 0 1 -2-2 2 2 0 0 1 2-2zm-2 12v5h4v-5z" fill="#a0a0a0"/>
</svg>
