<svg height="48" width="48" xmlns="http://www.w3.org/2000/svg">
  <path d="m24-.009766c-13.25-.0001-23.990134 10.739766-23.990234 23.989766 0 13.25 10.740234 23.99 23.990234 23.99s23.99-10.74 23.99-23.99-10.74-23.989766-23.99-23.989766zm0 5.001766c10.5 0 19.01 8.508 19.01 19.008s-8.51 19.01-19.01 19.01-19.008-8.51-19.008-19.01c.001-10.5 8.508-19.007 19.008-19.008zm-6.57 10.008-.13 6.7h1.65l.16-1.38c.05-.46.2-.8.45-1.03.26-.24.64-.36 1.14-.36l6.24.12-6.87 15.32 4.79.21 7.57-18.24v-1.34z" fill="#a0a0a0"/>
</svg>
