<?xml version="1.0" encoding="UTF-8" standalone="no"?>
<!-- Created with Inkscape (http://www.inkscape.org/) -->

<svg
   xmlns:dc="http://purl.org/dc/elements/1.1/"
   xmlns:cc="http://creativecommons.org/ns#"
   xmlns:rdf="http://www.w3.org/1999/02/22-rdf-syntax-ns#"
   xmlns:svg="http://www.w3.org/2000/svg"
   xmlns="http://www.w3.org/2000/svg"
   xmlns:sodipodi="http://sodipodi.sourceforge.net/DTD/sodipodi-0.dtd"
   xmlns:inkscape="http://www.inkscape.org/namespaces/inkscape"
   width="48px"
   height="48px"
   id="svg4445"
   version="1.1"
   inkscape:version="0.48.4 r9939"
   sodipodi:docname="floating.svg">
  <defs
     id="defs4447" />
  <sodipodi:namedview
     id="base"
     pagecolor="#ffffff"
     bordercolor="#666666"
     borderopacity="1.0"
     inkscape:pageopacity="0.0"
     inkscape:pageshadow="2"
     inkscape:zoom="7"
     inkscape:cx="-5"
     inkscape:cy="24"
     inkscape:current-layer="layer1"
     showgrid="true"
     inkscape:grid-bbox="true"
     inkscape:document-units="px"
     inkscape:window-width="1912"
     inkscape:window-height="1022"
     inkscape:window-x="0"
     inkscape:window-y="0"
     inkscape:window-maximized="1">
    <inkscape:grid
       type="xygrid"
       id="grid4453" />
  </sodipodi:namedview>
  <metadata
     id="metadata4450">
    <rdf:RDF>
      <cc:Work
         rdf:about="">
        <dc:format>image/svg+xml</dc:format>
        <dc:type
           rdf:resource="http://purl.org/dc/dcmitype/StillImage" />
        <dc:title></dc:title>
      </cc:Work>
    </rdf:RDF>
  </metadata>
  <g
     id="layer1"
     inkscape:label="Layer 1"
     inkscape:groupmode="layer">
    <g
       id="Layer_1"
       transform="matrix(1.5,0,0,1.5,60,-25)"
       style="fill:#a0a0a0;fill-opacity:1" />
    <g
       id="pin"
       transform="scale(1.5,1.5)"
       style="fill:#a0a0a0;fill-opacity:1">
      <path
         inkscape:connector-curvature="0"
         style="fill:#a0a0a0;fill-opacity:1"
         d="m 32,8 c 0,-4.416 -3.586,-8 -8,-8 -2.984,0 -5.562,1.658 -6.938,4.086 0,-0.002 0.004,-0.004 0.004,-0.006 -0.367,-0.035 -0.723,-0.111 -1.098,-0.111 -6.629,0 -12,5.371 -12,12 0,2.527 0.789,4.867 2.121,6.797 L 0,32 9.289,25.938 c 1.91,1.281 4.207,2.031 6.68,2.031 6.629,0 12,-5.371 12,-12 0,-0.346 -0.07,-0.67 -0.102,-1.008 C 30.32,13.594 32,11.006 32,8 z M 15.969,23.969 c -4.414,0 -8,-3.586 -8,-8 0,-4.412 3.586,-8 8,-8 0.012,0 0.023,0.004 0.031,0.004 0,-0.008 0.004,-0.014 0.004,-0.02 C 16.004,7.969 16,7.984 16,8 c 0,0.695 0.117,1.355 0.281,1.998 l -3.172,3.174 c -1.562,1.562 -1.562,4.094 0,5.656 1.562,1.562 4.094,1.562 5.656,0 l 3.141,-3.141 c 0.66,0.18 1.344,0.305 2.059,0.309 -0.016,4.402 -3.594,7.973 -7.996,7.973 z M 24,12 c -2.203,0 -4,-1.795 -4,-4 0,-2.205 1.797,-4 4,-4 2.203,0 4,1.795 4,4 0,2.205 -1.797,4 -4,4 z"
         id="path6" />
    </g>
  </g>
</svg>
