<svg height="48" width="48" xmlns="http://www.w3.org/2000/svg">
  <path d="m40.5 48c3.04 0 5.51-2.47 5.51-5.5v-37.002c0-3.04-2.47-5.5-5.51-5.5h-17c-3.04 0-5.5 2.46-5.5 5.5v10.502h10c3.31 0 6 4.69 6 8 0 3.3-2.69 7.99-6 7.99h-10v10.51c0 3.03 2.46 5.5 5.5 5.5zm-28.31-14.01c.2 0 .39-.1.57-.14.76-.32 1.24-1.05 1.24-1.86v-3.99h14c1.08.16 2-2.9 2-4 0-1.11-.89-4-2-4h-14v-4c0-.8-.48-1.54-1.24-1.84-.74-.32-1.6-.14-2.18.42l-8.003 8c-.78.78-.78 2.06 0 2.83l8.003 8c.44.43 1.03.64 1.61.58z" fill="#a0a0a0"/>
</svg>
