<svg height="48" width="48" xmlns="http://www.w3.org/2000/svg">
  <path d="m23.99-.0025c-13.23 0-23.9925 10.7625-23.9925 23.9925 0 13.24 10.7625 24.01 23.9925 24.01 13.24 0 24.01-10.77 24.01-24.01 0-13.23-10.77-23.9925-24.01-23.9925zm-2.18 10.9125c0-1.21.97-2.186 2.18-2.186s2.19.976 2.19 2.186v9.34c0 1.21-.98 2.19-2.19 2.19s-2.18-.98-2.18-2.19zm2.18 28.35c-7.64 0-13.86-6.22-13.86-13.86 0-3.41 1.25-6.68 3.5-9.23.81-.9 2.18-.98 3.09-.18.9.81.98 2.18.18 3.08-1.56 1.75-2.42 3.99-2.42 6.33 0 5.23 4.28 9.51 9.51 9.51 5.24 0 9.51-4.28 9.51-9.51 0-2.34-.85-4.58-2.42-6.33-.79-.9-.72-2.27.18-3.08.91-.8 2.29-.72 3.09.18 2.26 2.55 3.51 5.82 3.51 9.23 0 7.64-6.22 13.86-13.87 13.86z" fill="#a0a0a0"/>
</svg>
