<svg height="48" width="48" xmlns="http://www.w3.org/2000/svg">
  <path d="m24 .0007736c-6.85 0-12.46 5.6042264-12.46 12.4592264 0 6.86 5.61 12.46 12.46 12.46 6.86 0 12.46-5.6 12.46-12.46 0-6.855-5.6-12.4592264-12.46-12.4592264zm-9.23 25.8392264c-.93 0-1.89.41-2.78.59-4.209 1.35-7.813 4.58-9.458 8.7.281 1.74 1.781 3.05 2.802 4.44 4.3 4.92 10.576 8.04 17.116 8.38 7.52.5 15.17-2.67 20.1-8.38 1.09-1.37 2.45-2.74 2.92-4.44l-.1-.25c-2.15-4.89-7.03-8.59-12.39-9.04-1.55.24-2.62 1.65-4.13 2.04-4.22 1.68-9.28 1-12.87-1.77-.39-.21-.81-.28-1.23-.27z" fill="#a0a0a0"/>
</svg>
