<svg height="48" width="48" xmlns="http://www.w3.org/2000/svg">
  <path d="m25.5332.635265a2.16898 2.16898 0 0 0-3.066 0l-21.831935 21.831935a2.16898 2.16898 0 0 0 0 3.066l21.831935 21.8319a2.16898 2.16898 0 0 0 3.066 0l21.8319-21.8319a2.16898 2.16898 0 0 0 0-3.066zm-1.5343 4.600365l18.7645 18.76457-18.7632 18.7632-18.76457-18.7645z" fill="#a0a0a0" fill-rule="evenodd"/>
  <path d="m23.4426 36.9487c.3385.3386.8902.337 1.2279-.0007l11.679-11.679c.6765-.6764.4479-1.2281-.5089-1.2288-7.8563-.0005-15.7122.0005-23.569-.0003-.9552-.0006-1.1846.5533-.509 1.229z" fill="#a0a0a0"/>
</svg>
