<?xml version="1.0" encoding="UTF-8" standalone="no"?>
<!-- Created with Inkscape (http://www.inkscape.org/) -->

<svg
   xmlns:dc="http://purl.org/dc/elements/1.1/"
   xmlns:cc="http://creativecommons.org/ns#"
   xmlns:rdf="http://www.w3.org/1999/02/22-rdf-syntax-ns#"
   xmlns:svg="http://www.w3.org/2000/svg"
   xmlns="http://www.w3.org/2000/svg"
   xmlns:sodipodi="http://sodipodi.sourceforge.net/DTD/sodipodi-0.dtd"
   xmlns:inkscape="http://www.inkscape.org/namespaces/inkscape"
   width="48"
   height="48"
   id="svg3770"
   version="1.1"
   inkscape:version="0.48.4 r9939"
   sodipodi:docname="fav.svg">
  <defs
     id="defs3772" />
  <sodipodi:namedview
     id="base"
     pagecolor="#ffffff"
     bordercolor="#666666"
     borderopacity="1.0"
     inkscape:pageopacity="0.0"
     inkscape:pageshadow="2"
     inkscape:zoom="14"
     inkscape:cx="37.863854"
     inkscape:cy="25.113957"
     inkscape:current-layer="Star_1_-_filled"
     showgrid="true"
     inkscape:grid-bbox="true"
     inkscape:document-units="px"
     inkscape:window-width="1912"
     inkscape:window-height="1022"
     inkscape:window-x="0"
     inkscape:window-y="0"
     inkscape:window-maximized="1">
    <inkscape:grid
       type="xygrid"
       id="grid3778"
       empspacing="5"
       visible="true"
       enabled="true"
       snapvisiblegridlinesonly="true" />
  </sodipodi:namedview>
  <metadata
     id="metadata3775">
    <rdf:RDF>
      <cc:Work
         rdf:about="">
        <dc:format>image/svg+xml</dc:format>
        <dc:type
           rdf:resource="http://purl.org/dc/dcmitype/StillImage" />
        <dc:title />
      </cc:Work>
    </rdf:RDF>
  </metadata>
  <g
     id="layer1"
     inkscape:label="Layer 1"
     inkscape:groupmode="layer">
    <g
       transform="matrix(0.84293556,0,0,0.84293556,-511.9878,-138.95243)"
       id="Star_1_-_filled"
       style="fill:#000000;fill-opacity:1">
      <g
         id="g614"
         style="fill:#a0a0a0;fill-opacity:1"
         transform="matrix(1.26539,0,0,1.26539,-161.19437,-58.54531)">
        <g
           id="g616"
           style="fill:#a0a0a0;fill-opacity:1">
          <path
             style="fill:#a0a0a0;fill-opacity:1"
             inkscape:connector-curvature="0"
             d="m 617.479,220.601 c -0.711,0 -1.352,-0.282 -1.803,-0.794 -0.5,-0.566 -0.715,-1.361 -0.605,-2.24 l 1.369,-10.944 c 0.074,-0.592 -0.266,-1.638 -0.674,-2.073 l -7.539,-8.051 c -0.75,-0.801 -1.016,-1.773 -0.725,-2.667 0.291,-0.893 1.074,-1.524 2.152,-1.731 l 10.832,-2.08 c 0.584,-0.112 1.477,-0.76 1.766,-1.284 l 5.137,-9.317 c 0.201,-0.408 1,-1.799 2.498,-1.799 1.574,0 2.408,1.598 2.561,1.918 l 5.074,9.2 c 0.289,0.523 1.182,1.171 1.766,1.283 l 10.832,2.08 c 1.078,0.207 1.861,0.838 2.152,1.731 0.291,0.893 0.027,1.866 -0.725,2.667 l -7.539,8.05 c -0.408,0.436 -0.748,1.482 -0.674,2.075 l 1.367,10.944 c 0.109,0.876 -0.104,1.671 -0.604,2.238 -0.73,0.826 -1.961,1.028 -3.135,0.48 l -9.984,-4.685 c -0.199,-0.093 -0.588,-0.192 -1.092,-0.192 -0.504,0 -0.895,0.099 -1.092,0.191 l -9.982,4.685 c -0.45,0.209 -0.897,0.315 -1.333,0.315 l 0,0 z m 12.409,-8.331 c 0.893,0 1.752,0.174 2.424,0.489 l 9.16,4.297 -1.252,-10.044 c -0.189,-1.515 0.455,-3.496 1.498,-4.609 l 6.918,-7.387 -9.939,-1.913 c -1.498,-0.288 -3.184,-1.512 -3.922,-2.85 l -4.887,-8.863 -4.887,8.862 c -0.738,1.338 -2.426,2.563 -3.924,2.851 l -9.936,1.908 6.916,7.391 c 1.043,1.113 1.688,3.094 1.498,4.61 l -1.256,10.041 9.164,-4.295 c 0.673,-0.315 1.532,-0.488 2.425,-0.488 l 0,0 z"
             id="path618" />
        </g>
        <path
           style="fill:#a0a0a0;fill-opacity:1;fill-rule:evenodd"
           inkscape:connector-curvature="0"
           clip-rule="evenodd"
           d="m 629.28,189.527 c 0,0 0.244,-0.523 0.607,-0.523 0.363,0 0.627,0.56 0.627,0.56 l 2.816,5.108 c 0.285,0.514 0.988,1.026 1.564,1.137 l 5.955,1.144 c 0.578,0.111 0.721,0.553 0.32,0.981 l -4.146,4.427 c -0.402,0.428 -0.67,1.256 -0.598,1.838 l 0.752,6.02 c 0.074,0.581 -0.303,0.855 -0.834,0.606 l -5.49,-2.577 c -0.533,-0.249 -1.402,-0.249 -1.934,0 l -5.49,2.577 c -0.533,0.249 -0.908,-0.024 -0.836,-0.606 l 0.754,-6.02 c 0.072,-0.582 -0.197,-1.41 -0.598,-1.838 l -4.146,-4.427 c -0.402,-0.429 -0.258,-0.871 0.318,-0.981 l 5.957,-1.144 c 0.576,-0.111 1.279,-0.623 1.564,-1.137 l 2.838,-5.145 z"
           id="path620" />
      </g>
    </g>
  </g>
</svg>
