<svg height="48" width="48" xmlns="http://www.w3.org/2000/svg" xmlns:xlink="http://www.w3.org/1999/xlink">
  <defs>
    <path id="a" d="m3.375 6.106245c-.7699099 0-1.375.6559947-1.375 1.4666666v31.2888884c0 .810672.6050902 1.466667 1.375 1.466667h10.938889c.76991 0 1.375-.655995 1.375-1.466667v-31.2888884c0-.8106719-.60509-1.4666666-1.375-1.4666666zm30.311111 0c-.76991 0-1.375.6559947-1.375 1.4666666v31.2888884c0 .810672.60509 1.466667 1.375 1.466667h10.938889c.76991 0 1.375-.655995 1.375-1.466667v-31.2888884c0-.8106719-.60509-1.4666666-1.375-1.4666666zm-9.502778 5.469444l-.275.397223c-1.732934 2.461023-1.752771 4.82146-1.313889 6.538888.438883 1.717429 1.313889 2.841667 1.313889 2.841667l.305556.366667.763889-.611111-.305556-.366667c0 0-.744438-.964051-1.130555-2.475-.386118-1.510949-.405955-3.518978 1.161111-5.744444l.275-.397223zm4.705556.03056l-.305556.427778c-1.732934 2.461023-1.752771 4.82146-1.313889 6.538888.438883 1.717429 1.344445 2.841667 1.344445 2.841667l.305555.366667.763889-.611111-.305555-.366667c0 0-.774994-.964051-1.161111-2.475-.386118-1.510949-.3754-3.518978 1.191666-5.744444l.275-.397223zm-9.594445.09167l-.275.397223c-1.732934 2.461022-1.752771 4.821459-1.313888 6.538888.438882 1.717428 1.344444 2.841666 1.344444 2.841666l.305556.366667.763888-.611111-.305555-.366667c0 0-.774994-.964051-1.161111-2.475-.386118-1.510949-.405955-3.518978 1.161111-5.744444l.305555-.397222zm4.094445 13.2l-.794445.55.275.397223c1.567066 2.225466 1.547229 4.26405 1.161112 5.775-.386118 1.510941-1.130556 2.444436-1.130556 2.444436l-.305556.397222.733334.611111.305555-.397222c0 0 .905562-1.093682 1.344445-2.811111.438882-1.717428.419045-4.108421-1.313889-6.569444l-.275-.397223zm-4.705556.06111l-.794444.55.275.397222c1.567066 2.225466 1.547229 4.264051 1.161111 5.775-.386118 1.510949-1.130556 2.444444-1.130556 2.444444l-.305555.397222.763889.611112.305555-.397223c0 0 .875007-1.093682 1.313889-2.811111.438883-1.717428.419045-4.108421-1.313889-6.569444zm9.563889.06111l-.794444.55.305555.397222c1.567066 2.225466 1.547229 4.264051 1.161111 5.775-.386117 1.510949-1.161111 2.444444-1.161111 2.444444l-.305555.397223.763889.611111.305555-.397223c0 0 .905562-1.093682 1.344445-2.811111.438882-1.717428.419045-4.10842-1.313889-6.569444z"/>
  </defs>
  <use fill="#a0a0a0" height="48" transform="matrix(1.0909091 0 0 1.0909091 -2.1818184 -1.3280249)" width="48" xlink:href="#a"/>
</svg>
