<?xml version="1.0" encoding="UTF-8" standalone="no"?>
<!-- Created with Inkscape (http://www.inkscape.org/) -->

<svg
   xmlns:dc="http://purl.org/dc/elements/1.1/"
   xmlns:cc="http://creativecommons.org/ns#"
   xmlns:rdf="http://www.w3.org/1999/02/22-rdf-syntax-ns#"
   xmlns:svg="http://www.w3.org/2000/svg"
   xmlns="http://www.w3.org/2000/svg"
   xmlns:sodipodi="http://sodipodi.sourceforge.net/DTD/sodipodi-0.dtd"
   xmlns:inkscape="http://www.inkscape.org/namespaces/inkscape"
   width="48px"
   height="48px"
   id="svg2985"
   version="1.1"
   inkscape:version="0.48.4 r9939"
   sodipodi:docname="star.svg">
  <defs
     id="defs2987" />
  <sodipodi:namedview
     id="base"
     pagecolor="#ffffff"
     bordercolor="#666666"
     borderopacity="1.0"
     inkscape:pageopacity="0.0"
     inkscape:pageshadow="2"
     inkscape:zoom="1.75"
     inkscape:cx="-66.171209"
     inkscape:cy="81.988413"
     inkscape:current-layer="layer1"
     showgrid="true"
     inkscape:grid-bbox="true"
     inkscape:document-units="px"
     inkscape:window-width="1912"
     inkscape:window-height="1036"
     inkscape:window-x="0"
     inkscape:window-y="0"
     inkscape:window-maximized="1" />
  <metadata
     id="metadata2990">
    <rdf:RDF>
      <cc:Work
         rdf:about="">
        <dc:format>image/svg+xml</dc:format>
        <dc:type
           rdf:resource="http://purl.org/dc/dcmitype/StillImage" />
        <dc:title></dc:title>
      </cc:Work>
    </rdf:RDF>
  </metadata>
  <g
     id="layer1"
     inkscape:label="Layer 1"
     inkscape:groupmode="layer">
    <path
       style="fill:#a0a0a0;fill-opacity:1"
       d="m 30.226104,47.977017 c -0.08665,-0.127625 -0.301279,-0.649726 -0.476967,-1.160224 -0.346833,-1.007805 -1.171907,-1.97238 -1.687121,-1.97238 -0.475108,0 -1.115893,0.940176 -1.115893,1.63727 0,0.935212 -0.338784,1.026494 -0.648262,0.174667 -0.163935,-0.451224 -0.652507,-0.99154 -1.185086,-1.3106 -0.845624,-0.506597 -0.887626,-0.587602 -0.628732,-1.212647 0.247787,-0.598232 0.197662,-0.745657 -0.469178,-1.379946 -0.633863,-0.602926 -0.698224,-0.770205 -0.426212,-1.107798 0.176213,-0.218702 0.454868,-0.68222 0.619229,-1.030044 0.164365,-0.347823 0.62247,-0.735215 1.018011,-0.860869 0.477333,-0.151639 0.854653,-0.523969 1.122082,-1.107241 0.596233,-1.300409 0.287213,-3.162286 -1.02821,-6.195115 -0.966587,-2.228553 -1.13921,-2.893936 -1.284441,-4.950971 -0.09227,-1.307026 -0.323004,-2.846434 -0.512725,-3.420907 -0.321339,-0.973019 -0.307879,-1.087436 0.19669,-1.671993 0.541129,-0.626912 0.749471,-2.175061 0.342604,-2.545838 -0.248446,-0.226408 -0.67149,0.35618 -0.676705,0.93191 -0.0021,0.236826 -0.300464,0.751779 -0.662937,1.144341 -0.539813,0.584627 -0.630242,0.863548 -0.499859,1.541789 0.08755,0.45542 0.225145,1.59194 0.305766,2.5256 0.132416,1.533425 0.09218,1.750345 -0.416155,2.243447 -0.4257,0.412942 -0.523395,0.709159 -0.401156,1.216341 0.117685,0.48829 -0.01905,0.964993 -0.503227,1.754444 -0.753861,1.229159 -1.637446,4.782336 -1.64245,6.604808 -0.004,1.434334 0.497835,2.03694 1.894997,2.2758 1.148634,0.19637 1.264322,0.379933 0.868353,1.37783 -0.302048,0.761209 -0.278156,0.848908 0.409437,1.502939 0.708146,0.673582 0.716355,0.708507 0.271748,1.156216 -0.355549,0.358027 -0.43116,0.72055 -0.336847,1.61502 l 0.121612,1.153366 -0.69996,-0.682842 c -0.384977,-0.375564 -0.933949,-0.682843 -1.219938,-0.682843 -0.57844,0 -1.312747,0.807671 -1.312747,1.443901 0,0.68904 -0.358011,0.459671 -0.808642,-0.518082 -0.337179,-0.731597 -0.561176,-0.925819 -1.067741,-0.925819 -0.369381,0 -0.805268,0.21366 -1.028552,0.504164 -0.371898,0.483862 -0.393725,0.486198 -0.542073,0.05801 -0.481138,-1.388762 -1.223627,-1.619667 -2.078314,-0.64633 l -0.583293,0.664267 -0.0013,-0.651686 c -7.64e-4,-0.358425 0.121555,-1.373052 0.271665,-2.254722 0.243973,-1.432965 0.214199,-1.761484 -0.280635,-3.096491 -0.351075,-0.947111 -0.865572,-1.769022 -1.406424,-2.246738 -0.834517,-0.737101 -0.890029,-0.75033 -2.5839609,-0.615858 -0.952117,0.07558 -2.4079185,0.352202 -3.2351122,0.61471 -0.8271971,0.26251 -1.6865768,0.471341 -1.9097321,0.464073 -0.2231587,-0.0073 -0.8496892,-0.543887 -1.39229,-1.192489 C 1.9541073,35.992346 1.9319576,35.922897 2.0494625,34.426297 2.1157855,33.581559 2.3568472,32.561224 2.5851567,32.158889 2.9647329,31.489976 2.9679316,31.134228 2.622499,28.002402 1.4934194,17.765662 1.9379996,13.581637 4.5906917,9.4794927 c 2.2832401,-3.53082 7.3049653,-7.017649 12.1701513,-8.450328 2.056494,-0.60558794 4.959597,-1.06554994 5.510162,-0.87301694 0.361781,0.126515 0.398068,0.529205 0.28968,3.21474994 -0.106387,2.635979 -0.05825,3.201369 0.340436,3.998297 0.25539,0.510498 0.590924,1.53 0.745633,2.265561 0.154706,0.7355613 0.387427,1.2776033 0.51715,1.2045403 0.450851,-0.253922 0.263649,-2.8588513 -0.274532,-3.8202033 -0.429998,-0.768098 -0.470256,-1.068216 -0.255555,-1.905124 0.140166,-0.54637 0.324068,-1.920527 0.408675,-3.053684 L 24.196322,-2.386425e-7 26.081681,0.15569276 c 5.924101,0.48921 11.917073,3.30010994 15.518006,7.27845294 1.520493,1.679855 3.265194,4.6958263 3.65784,6.3231213 0.423708,1.756014 0.854215,10.305039 0.681896,13.541044 -0.199859,3.753144 -0.199844,3.498113 -2.54e-4,6.232505 0.189446,2.596782 0.01666,3.009698 -1.690273,4.039088 l -1.018356,0.614139 -3.666506,-0.873883 -3.666507,-0.873882 -1.390263,0.72487 c -2.093833,1.091708 -2.098044,1.100706 -1.595278,3.407739 0.595039,2.73043 0.793206,5.098256 0.443178,5.295394 -0.153591,0.08651 -0.512603,-0.05537 -0.797807,-0.315272 -1.04412,-0.951504 -1.969768,-0.287612 -2.093515,1.501508 -0.04408,0.637199 -0.151027,1.054123 -0.237673,0.926499 z M 14.342773,33.14837 c 3.372338,-1.518858 5.455459,-3.940894 5.907666,-6.868815 0.158493,-1.026181 -0.314986,-1.443488 -2.2164,-1.953459 -2.190904,-0.587616 -8.2740959,-0.976679 -10.1911179,-0.651793 -2.9564798,0.501045 -3.5589545,1.32533 -3.5589545,4.869224 0,2.172641 0.042785,2.36186 0.7266152,3.213556 1.6004272,1.993294 2.625441,2.446348 5.3051982,2.344877 1.800345,-0.06817 2.350183,-0.198373 4.026993,-0.95359 z m 24.869716,0.350258 c 0.639269,-0.36945 1.492435,-1.065835 1.895926,-1.547518 0.672353,-0.802652 0.740864,-1.06438 0.820351,-3.134023 0.147922,-3.851529 -0.805353,-4.966511 -4.486456,-5.247503 -1.999108,-0.1526 -7.258485,0.266605 -9.199743,0.733275 -1.942182,0.466892 -2.403755,0.919707 -2.215224,2.173184 0.620432,4.125038 5.349484,7.632245 10.353932,7.678791 1.420317,0.0132 1.842039,-0.08453 2.831214,-0.656206 z"
       id="path3847"
       inkscape:connector-curvature="0" />
  </g>
</svg>
