<?xml version="1.0" encoding="UTF-8" standalone="no"?>
<!-- Created with Inkscape (http://www.inkscape.org/) -->

<svg
   xmlns:dc="http://purl.org/dc/elements/1.1/"
   xmlns:cc="http://creativecommons.org/ns#"
   xmlns:rdf="http://www.w3.org/1999/02/22-rdf-syntax-ns#"
   xmlns:svg="http://www.w3.org/2000/svg"
   xmlns="http://www.w3.org/2000/svg"
   xmlns:sodipodi="http://sodipodi.sourceforge.net/DTD/sodipodi-0.dtd"
   xmlns:inkscape="http://www.inkscape.org/namespaces/inkscape"
   width="48"
   height="48"
   id="svg2988"
   version="1.1"
   inkscape:version="0.48.4 r9939"
   sodipodi:docname="up.svg">
  <defs
     id="defs2990">
    <filter
       id="filter5054"
       inkscape:label="filter1"
       color-interpolation-filters="sRGB" />
  </defs>
  <sodipodi:namedview
     id="base"
     pagecolor="#ffffff"
     bordercolor="#666666"
     borderopacity="1.0"
     inkscape:pageopacity="0.0"
     inkscape:pageshadow="2"
     inkscape:zoom="11.313709"
     inkscape:cx="25.647765"
     inkscape:cy="24.062419"
     inkscape:current-layer="layer1"
     showgrid="true"
     inkscape:grid-bbox="true"
     inkscape:document-units="px"
     inkscape:window-width="1912"
     inkscape:window-height="1036"
     inkscape:window-x="0"
     inkscape:window-y="0"
     inkscape:window-maximized="1">
    <inkscape:grid
       type="xygrid"
       id="grid2996"
       empspacing="5"
       visible="true"
       enabled="true"
       snapvisiblegridlinesonly="true" />
  </sodipodi:namedview>
  <metadata
     id="metadata2993">
    <rdf:RDF>
      <cc:Work
         rdf:about="">
        <dc:format>image/svg+xml</dc:format>
        <dc:type
           rdf:resource="http://purl.org/dc/dcmitype/StillImage" />
        <dc:title></dc:title>
      </cc:Work>
    </rdf:RDF>
  </metadata>
  <g
     id="layer1"
     inkscape:label="Layer 1"
     inkscape:groupmode="layer">
    <path
       style="fill:#a0a0a0;fill-opacity:1"
       d="m 0.11850059,43.787462 c -0.32412,-0.390534 -0.0721,-0.943865 1.88287001,-4.134218 0.88664,-1.446917 2.7917,-4.567924 4.23347,-6.935569 1.44177,-2.367645 2.74823,-4.3419 2.90326,-4.387233 0.15503,-0.04533 0.50272,-0.518134 0.77265,-1.050665 0.7686804,-1.516482 1.0154404,-1.467892 4.5944404,0.904695 1.64723,1.091983 3.24865,2.122194 3.5587,2.289356 0.69427,0.374308 5.57956,3.394797 7.2061,4.455404 l 1.19295,0.777874 -3.16601,0.122137 c -3.92459,0.151398 -5.55514,0.459576 -9.29086,1.755986 -3.78816,1.314607 -6.2862604,2.471098 -10.8031704,5.001312 -1.45572,0.815442 -2.69262001,1.482619 -2.74868001,1.482619 -0.0561,0 -0.20714,-0.126763 -0.33572,-0.281698 z M 45.968721,43.185981 c -2.76059,-1.710097 -8.86011,-4.658826 -11.18072,-5.405163 -1.24022,-0.398868 -2.36064,-0.751151 -2.48983,-0.782853 -0.39139,-0.09605 -0.27136,-0.502464 0.55117,-1.866234 0.62714,-1.039823 0.793,-1.501615 0.82043,-2.284326 0.0189,-0.539566 0.12046,-1.216149 0.22566,-1.503512 0.10521,-0.287365 0.29661,-0.903002 0.42534,-1.368083 0.12873,-0.46508 0.34147,-1.183841 0.47275,-1.597246 0.13129,-0.413405 0.38254,-1.301286 0.55833,-1.973069 0.66132,-2.527193 0.83157,-2.599785 1.88277,-0.802785 0.40675,0.695332 0.86826,1.393723 1.02558,1.551978 0.15731,0.158257 0.63502,0.878891 1.06157,1.601409 1.38179,2.340582 5.80954,9.70633 7.28113,12.11246 1.47259,2.407766 1.64974,2.889253 1.13561,3.086543 -0.3696,0.14183 -0.13391,0.244254 -1.76979,-0.769119 z m -15.0329,-6.831515 c -0.25838,-0.09271 -1.14856,-0.284485 -1.97818,-0.426157 -1.04401,-0.17828 -1.76077,-0.425542 -2.3281,-0.803127 -0.45083,-0.300049 -1.04031,-0.665918 -1.30993,-0.813042 -0.26963,-0.147123 -0.82018,-0.506503 -1.22344,-0.798623 -0.40326,-0.292119 -0.82076,-0.531125 -0.92778,-0.531125 -0.10702,0 -0.36915,-0.15846 -0.58252,-0.352135 -0.21336,-0.193675 -0.81073,-0.582602 -1.32749,-0.864287 -0.51675,-0.281685 -1.06639,-0.617176 -1.22142,-0.745538 -0.15503,-0.12836 -0.83151,-0.555308 -1.50329,-0.948768 -0.67178,-0.393462 -1.64423,-0.985717 -2.16098,-1.316124 -0.51676,-0.330406 -1.89086,-1.140636 -3.05356,-1.80051 -1.1627,-0.659875 -2.114,-1.296298 -2.114,-1.414277 0,-0.117978 0.42062,-0.858835 0.93471,-1.646347 0.5141,-0.787512 1.20458,-1.961063 1.5344,-2.60789 0.32983,-0.646828 0.73268,-1.331808 0.89521,-1.522181 0.35855,-0.419948 1.18178,-1.811153 1.70869,-2.887557 0.21291,-0.434962 0.46721,-0.84034 0.5651,-0.90084 0.0979,-0.0605 0.48318,-0.655736 0.85619,-1.322745 0.37301,-0.66701 0.80446,-1.283399 0.95876,-1.369753 0.16071,-0.08994 0.65559,-0.05696 1.15851,0.07721 1.99444,0.532068 3.12032,0.850716 6.60924,1.870554 2.01535,0.5891 3.94579,1.138355 4.28987,1.220566 0.76179,0.182012 0.71566,0.136692 1.53023,1.50335 0.36457,0.611651 1.2417,2.064557 1.94918,3.228679 l 1.28634,2.116586 -0.48963,1.693489 c -1.68122,5.814956 -2.54596,8.971577 -2.72312,9.940389 -0.18906,1.03386 -0.46995,1.638249 -0.74529,1.603609 -0.0649,-0.0082 -0.32933,-0.09069 -0.5877,-0.183405 z m -0.75165,-20.841017 c -1.30105,-0.412092 -6.57785,-1.947709 -7.22719,-2.103204 -0.74796,-0.179113 -1.22882,-0.460754 -1.22882,-0.71973 0,-0.07664 0.35882,-0.383387 0.79737,-0.681658 0.43856,-0.298272 1.62939,-1.12422 2.6463,-1.83544 1.54562,-1.0809967 1.88768,-1.2505397 2.08517,-1.0335127 0.56461,0.620473 3.86943,6.2103377 3.76835,6.3738877 -0.12704,0.20555 -0.19122,0.205524 -0.84118,-3.39e-4 z m -10.24117,-2.725531 c -0.10335,-0.03689 -0.42045,-0.118364 -0.70466,-0.181049 -0.28422,-0.06269 -0.51676,-0.20365 -0.51676,-0.313256 0,-0.340604 4.77678,-8.2275427 5.05045,-8.3387937 0.14228,-0.05784 0.37651,-0.0074 0.52049,0.1121 0.31951,0.26517 2.70348,4.195094 2.68133,4.420118 -0.0217,0.220514 -6.02843,4.2000277 -6.48015,4.2931597 -0.19953,0.04114 -0.44735,0.04461 -0.5507,0.0077 z"
       id="path5624"
       inkscape:connector-curvature="0" />
  </g>
</svg>
