<svg height="48" width="48" xmlns="http://www.w3.org/2000/svg">
  <path d="m23.96.001953a2.169 2.169 0 0 0 -1.49.630847l-21.8372 21.8372a2.169 2.169 0 0 0 0 3.06l21.8372 21.84a2.169 2.169 0 0 0 3.06 0l21.84-21.84a2.169 2.169 0 0 0 0-3.06l-21.84-21.8372a2.169 2.169 0 0 0 -1.57-.630847zm.04 5.232047 18.76 18.766-18.76 18.76-18.766-18.76zm0 8.766c-.48 0-.96.18-1.33.54l-8.11 8.13c-.74.73-.74 1.91 0 2.66l8.11 8.12c.75.73 1.91.73 2.66 0l8.13-8.12c.72-.75.72-1.92 0-2.66l-8.13-8.13c-.37-.36-.86-.54-1.33-.54z" fill="#a0a0a0" fill-rule="evenodd"/>
</svg>
