<svg height="48" viewBox="0 0 48 48" width="48" xmlns="http://www.w3.org/2000/svg">
  <path d="m170 0c-9.3 0-17.4 3.898-24.2 11.69-6.9 7.8-10.2 17.03-10.2 27.7s3.3 19.89 10.2 27.69c6.8 7.8 14.9 11.69 24.2 11.69v119.53c-17.8 0-33.7 10.1-47.8 30.3-14 20.2-21 43-21 68.2 0 5.3 1.7 9.9 5.1 13.8s7.4 5.8 12 5.8h108.3l-1.7 135.3c.1 20.3 20.1 44 29.6 44 10.5 0 30.5-23.7 30.3-43.4l1.7-135.9h107.1c4.7 0 8.8-1.9 12.2-5.8 3.3-3.9 5-8.5 5-13.8 0-25.2-7-48-21.1-68.2s-30-30.3-47.6-30.3v-119.53c9.2 0 17.3-3.89 24.1-11.69s10.1-17.03 10.1-27.69c0-10.67-3.3-19.9-10.1-27.7-6.8-7.792-14.9-11.69-24.1-11.69z" fill="#a0a0a0" transform="matrix(.09687276 0 0 .09687276 -.799383 -.0099)"/>
</svg>
